<svg xmlns="http://www.w3.org/2000/svg" xmlns:xlink="http://www.w3.org/1999/xlink" width="40" zoomAndPan="magnify" viewBox="0 0 30 30.000001" height="40" preserveAspectRatio="xMidYMid meet" version="1.2"><defs><clipPath id="1cc1ed172c"><path d="M 4 13 L 11 13 L 11 24.804688 L 4 24.804688 Z M 4 13 "/></clipPath><clipPath id="a134585788"><path d="M 19 13 L 25 13 L 25 24.804688 L 19 24.804688 Z M 19 13 "/></clipPath><clipPath id="49f80e67e3"><path d="M 9 13 L 11 13 L 11 24.804688 L 9 24.804688 Z M 9 13 "/></clipPath><clipPath id="9f1704a9d8"><path d="M 19 13 L 21 13 L 21 24.804688 L 19 24.804688 Z M 19 13 "/></clipPath><clipPath id="16a0cb2e63"><path d="M 9 10 L 21 10 L 21 24.804688 L 9 24.804688 Z M 9 10 "/></clipPath><clipPath id="e1379f88d0"><path d="M 9 5.933594 L 21 5.933594 L 21 11 L 9 11 Z M 9 5.933594 "/></clipPath><clipPath id="89703c8020"><path d="M 12 20 L 18 20 L 18 24.804688 L 12 24.804688 Z M 12 20 "/></clipPath><clipPath id="9326867c7e"><path d="M 14 20 L 16 20 L 16 24.804688 L 14 24.804688 Z M 14 20 "/></clipPath><clipPath id="3839beb927"><path d="M 3.597656 24 L 26.097656 24 L 26.097656 24.804688 L 3.597656 24.804688 Z M 3.597656 24 "/></clipPath><clipPath id="f9f7dd80bf"><path d="M 3.386719 5 L 9.917969 5 L 9.917969 10.445312 L 3.386719 10.445312 Z M 3.386719 5 "/></clipPath><clipPath id="9da7ebf5a8"><path d="M 4 7 L 9.917969 7 L 9.917969 10 L 4 10 Z M 4 7 "/></clipPath><clipPath id="ca7fb95140"><path d="M 5 3.914062 L 8 3.914062 L 8 10 L 5 10 Z M 5 3.914062 "/></clipPath></defs><g id="adf958621b"><g clip-rule="nonzero" clip-path="url(#1cc1ed172c)"><path style=" stroke:none;fill-rule:nonzero;fill:#f5c07f;fill-opacity:1;" d="M 5.140625 13.972656 L 9.9375 13.972656 C 10.082031 13.972656 10.203125 14.089844 10.203125 14.234375 L 10.203125 24.535156 C 10.203125 24.679688 10.082031 24.800781 9.9375 24.800781 L 5.140625 24.800781 C 4.996094 24.800781 4.875 24.679688 4.875 24.535156 L 4.875 14.234375 C 4.875 14.089844 4.996094 13.972656 5.140625 13.972656 Z M 5.140625 13.972656 "/></g><g clip-rule="nonzero" clip-path="url(#a134585788)"><path style=" stroke:none;fill-rule:nonzero;fill:#f5c07f;fill-opacity:1;" d="M 19.757812 13.972656 L 24.554688 13.972656 C 24.699219 13.972656 24.820312 14.089844 24.820312 14.234375 L 24.820312 24.535156 C 24.820312 24.679688 24.699219 24.800781 24.554688 24.800781 L 19.757812 24.800781 C 19.613281 24.800781 19.496094 24.679688 19.496094 24.535156 L 19.496094 14.234375 C 19.496094 14.089844 19.613281 13.972656 19.757812 13.972656 Z M 19.757812 13.972656 "/></g><g clip-rule="nonzero" clip-path="url(#49f80e67e3)"><path style=" stroke:none;fill-rule:nonzero;fill:#daa570;fill-opacity:1;" d="M 9.320312 13.972656 L 9.9375 13.972656 C 10.082031 13.972656 10.203125 14.089844 10.203125 14.234375 L 10.203125 24.535156 C 10.203125 24.679688 10.082031 24.800781 9.9375 24.800781 L 9.371094 24.800781 C 9.34375 24.71875 9.320312 24.628906 9.320312 24.535156 Z M 9.320312 13.972656 "/></g><g clip-rule="nonzero" clip-path="url(#9f1704a9d8)"><path style=" stroke:none;fill-rule:nonzero;fill:#daa570;fill-opacity:1;" d="M 19.757812 13.972656 L 20.378906 13.972656 L 20.378906 24.535156 C 20.378906 24.628906 20.351562 24.71875 20.3125 24.800781 L 19.757812 24.800781 C 19.613281 24.800781 19.496094 24.679688 19.496094 24.535156 L 19.496094 14.234375 C 19.496094 14.089844 19.613281 13.972656 19.757812 13.972656 Z M 19.757812 13.972656 "/></g><path style=" stroke:none;fill-rule:nonzero;fill:#4c7fe1;fill-opacity:1;" d="M 6.3125 14.984375 L 8.765625 14.984375 C 8.910156 14.984375 9.027344 15.101562 9.027344 15.246094 L 9.027344 17.113281 C 9.027344 17.257812 8.910156 17.375 8.765625 17.375 L 6.3125 17.375 C 6.167969 17.375 6.050781 17.257812 6.050781 17.113281 L 6.050781 15.246094 C 6.050781 15.101562 6.167969 14.984375 6.3125 14.984375 Z M 6.3125 14.984375 "/><path style=" stroke:none;fill-rule:nonzero;fill:#4c7fe1;fill-opacity:1;" d="M 6.3125 18.1875 L 8.765625 18.1875 C 8.910156 18.1875 9.027344 18.308594 9.027344 18.453125 L 9.027344 20.316406 C 9.027344 20.460938 8.910156 20.582031 8.765625 20.582031 L 6.3125 20.582031 C 6.167969 20.582031 6.050781 20.460938 6.050781 20.316406 L 6.050781 18.453125 C 6.050781 18.308594 6.167969 18.1875 6.3125 18.1875 Z M 6.3125 18.1875 "/><path style=" stroke:none;fill-rule:nonzero;fill:#4c7fe1;fill-opacity:1;" d="M 6.3125 21.410156 L 8.765625 21.410156 C 8.910156 21.410156 9.027344 21.515625 9.027344 21.671875 L 9.027344 23.539062 C 9.027344 23.683594 8.910156 23.800781 8.765625 23.800781 L 6.3125 23.800781 C 6.167969 23.800781 6.050781 23.683594 6.050781 23.539062 L 6.050781 21.671875 C 6.050781 21.515625 6.167969 21.410156 6.3125 21.410156 Z M 6.3125 21.410156 "/><path style=" stroke:none;fill-rule:nonzero;fill:#4c7fe1;fill-opacity:1;" d="M 20.929688 14.984375 L 23.382812 14.984375 C 23.527344 14.984375 23.648438 15.101562 23.648438 15.246094 L 23.648438 17.113281 C 23.648438 17.257812 23.527344 17.375 23.382812 17.375 L 20.929688 17.375 C 20.785156 17.375 20.667969 17.257812 20.667969 17.113281 L 20.667969 15.246094 C 20.667969 15.101562 20.785156 14.984375 20.929688 14.984375 Z M 20.929688 14.984375 "/><path style=" stroke:none;fill-rule:nonzero;fill:#4c7fe1;fill-opacity:1;" d="M 20.929688 18.1875 L 23.382812 18.1875 C 23.527344 18.1875 23.648438 18.308594 23.648438 18.453125 L 23.648438 20.316406 C 23.648438 20.460938 23.527344 20.582031 23.382812 20.582031 L 20.929688 20.582031 C 20.785156 20.582031 20.667969 20.460938 20.667969 20.316406 L 20.667969 18.453125 C 20.667969 18.308594 20.785156 18.1875 20.929688 18.1875 Z M 20.929688 18.1875 "/><path style=" stroke:none;fill-rule:nonzero;fill:#4c7fe1;fill-opacity:1;" d="M 20.929688 21.410156 L 23.382812 21.410156 C 23.527344 21.410156 23.648438 21.515625 23.648438 21.671875 L 23.648438 23.539062 C 23.648438 23.683594 23.527344 23.800781 23.382812 23.800781 L 20.929688 23.800781 C 20.785156 23.800781 20.667969 23.683594 20.667969 23.539062 L 20.667969 21.671875 C 20.667969 21.515625 20.785156 21.410156 20.929688 21.410156 Z M 20.929688 21.410156 "/><g clip-rule="nonzero" clip-path="url(#16a0cb2e63)"><path style=" stroke:none;fill-rule:nonzero;fill:#f6cc99;fill-opacity:1;" d="M 20.023438 10.109375 L 20.023438 17.464844 L 9.675781 17.464844 L 9.675781 10.109375 Z M 20.023438 17.992188 L 20.023438 24.535156 C 20.023438 24.679688 19.902344 24.800781 19.757812 24.800781 L 9.9375 24.800781 C 9.792969 24.800781 9.675781 24.679688 9.675781 24.535156 L 9.675781 17.992188 Z M 20.023438 17.992188 "/></g><path style=" stroke:none;fill-rule:nonzero;fill:#ce9a6a;fill-opacity:1;" d="M 9.675781 17.464844 L 20.023438 17.464844 L 20.023438 17.992188 L 9.675781 17.992188 Z M 9.675781 17.464844 "/><g clip-rule="nonzero" clip-path="url(#e1379f88d0)"><path style=" stroke:none;fill-rule:nonzero;fill:#f5c07f;fill-opacity:1;" d="M 9.675781 10.109375 L 14.671875 6.035156 C 14.761719 5.941406 14.921875 5.941406 15.027344 6.019531 L 20.023438 10.109375 Z M 9.675781 10.109375 "/></g><path style=" stroke:none;fill-rule:nonzero;fill:#fa3c48;fill-opacity:1;" d="M 14.839844 12.25 C 14.960938 12.105469 15.078125 12 15.222656 11.90625 C 15.460938 11.738281 15.75 11.660156 16.121094 11.660156 C 16.527344 11.660156 16.910156 11.804688 17.1875 12.027344 L 17.199219 12.039062 C 17.476562 12.277344 17.648438 12.605469 17.648438 12.972656 C 17.648438 13.578125 17.304688 14.15625 16.792969 14.71875 C 16.304688 15.257812 15.660156 15.785156 15.011719 16.308594 C 14.90625 16.402344 14.777344 16.390625 14.671875 16.308594 C 14.039062 15.785156 13.390625 15.257812 12.902344 14.71875 C 12.390625 14.15625 12.035156 13.578125 12.035156 12.972656 C 12.035156 12.605469 12.21875 12.277344 12.507812 12.027344 C 12.785156 11.804688 13.15625 11.660156 13.578125 11.660156 C 13.945312 11.660156 14.234375 11.738281 14.472656 11.90625 C 14.617188 12 14.734375 12.105469 14.839844 12.25 Z M 14.839844 12.25 "/><g clip-rule="nonzero" clip-path="url(#89703c8020)"><path style=" stroke:none;fill-rule:nonzero;fill:#4c7fe1;fill-opacity:1;" d="M 17.175781 24.800781 L 12.507812 24.800781 C 12.363281 24.800781 12.246094 24.679688 12.246094 24.535156 L 12.246094 20.527344 C 12.246094 20.382812 12.363281 20.265625 12.507812 20.265625 L 17.175781 20.265625 C 17.320312 20.265625 17.4375 20.382812 17.4375 20.527344 L 17.4375 24.535156 C 17.4375 24.679688 17.320312 24.800781 17.175781 24.800781 Z M 17.175781 24.800781 "/></g><g clip-rule="nonzero" clip-path="url(#9326867c7e)"><path style=" stroke:none;fill-rule:nonzero;fill:#4472cb;fill-opacity:1;" d="M 14.578125 20.265625 L 15.105469 20.265625 L 15.105469 24.800781 L 14.578125 24.800781 Z M 14.578125 20.265625 "/></g><path style=" stroke:none;fill-rule:nonzero;fill:#4c7fe1;fill-opacity:1;" d="M 14.839844 7.625 C 15.117188 7.625 15.367188 7.742188 15.554688 7.925781 C 15.738281 8.097656 15.84375 8.347656 15.84375 8.621094 C 15.84375 8.898438 15.738281 9.148438 15.554688 9.332031 C 15.367188 9.515625 15.117188 9.621094 14.839844 9.621094 C 14.566406 9.621094 14.316406 9.515625 14.144531 9.332031 C 13.957031 9.148438 13.839844 8.898438 13.839844 8.621094 C 13.839844 8.347656 13.957031 8.097656 14.144531 7.925781 C 14.316406 7.742188 14.566406 7.625 14.839844 7.625 Z M 14.839844 7.625 "/><g clip-rule="nonzero" clip-path="url(#3839beb927)"><path style=" stroke:none;fill-rule:nonzero;fill:#d48859;fill-opacity:1;" d="M 3.863281 24.800781 C 3.71875 24.800781 3.597656 24.679688 3.597656 24.535156 C 3.597656 24.390625 3.71875 24.273438 3.863281 24.273438 L 25.835938 24.273438 C 25.980469 24.273438 26.097656 24.390625 26.097656 24.535156 C 26.097656 24.679688 25.980469 24.800781 25.835938 24.800781 Z M 3.863281 24.800781 "/></g><path style=" stroke:none;fill-rule:evenodd;fill:#4870d0;fill-opacity:1;" d="M 15.84375 8.621094 C 15.84375 8.347656 15.738281 8.097656 15.554688 7.925781 C 15.367188 7.742188 15.117188 7.625 14.839844 7.625 C 14.578125 7.625 14.339844 7.730469 14.15625 7.898438 C 14.261719 7.859375 14.378906 7.847656 14.5 7.847656 C 14.777344 7.847656 15.027344 7.953125 15.210938 8.136719 C 15.394531 8.308594 15.5 8.558594 15.5 8.832031 C 15.5 9.109375 15.394531 9.359375 15.210938 9.542969 C 15.199219 9.554688 15.199219 9.554688 15.183594 9.554688 C 15.328125 9.515625 15.449219 9.4375 15.554688 9.332031 C 15.738281 9.148438 15.84375 8.898438 15.84375 8.621094 Z M 15.84375 8.621094 "/><g clip-rule="nonzero" clip-path="url(#f9f7dd80bf)"><path style=" stroke:none;fill-rule:nonzero;fill:#f781b6;fill-opacity:1;" d="M 9.769531 8.148438 C 9.660156 7.921875 9.5 7.726562 9.3125 7.566406 C 8.988281 7.289062 8.550781 7.109375 8.125 7.171875 C 8.289062 6.984375 8.445312 6.789062 8.5625 6.566406 C 8.71875 6.269531 8.804688 5.90625 8.722656 5.570312 C 8.683594 5.40625 8.609375 5.238281 8.472656 5.132812 C 8.320312 5.015625 8.121094 5.019531 7.949219 5.078125 C 7.785156 5.132812 7.644531 5.242188 7.523438 5.359375 C 7.398438 5.480469 7.285156 5.609375 7.175781 5.746094 C 6.960938 6.015625 6.773438 6.316406 6.632812 6.636719 C 6.617188 6.675781 6.601562 6.714844 6.585938 6.753906 C 6.570312 6.796875 6.585938 6.851562 6.632812 6.867188 C 6.671875 6.882812 6.726562 6.867188 6.746094 6.824219 C 6.804688 6.667969 6.875 6.519531 6.957031 6.378906 C 6.964844 6.359375 6.976562 6.34375 6.984375 6.324219 C 6.988281 6.320312 6.988281 6.320312 6.992188 6.316406 C 6.992188 6.316406 6.992188 6.316406 6.992188 6.3125 C 7 6.304688 7.003906 6.292969 7.011719 6.285156 C 7.03125 6.25 7.054688 6.214844 7.078125 6.179688 C 7.121094 6.109375 7.167969 6.042969 7.21875 5.976562 C 7.316406 5.84375 7.421875 5.714844 7.535156 5.59375 C 7.546875 5.582031 7.5625 5.566406 7.574219 5.554688 C 7.582031 5.546875 7.585938 5.539062 7.59375 5.535156 C 7.597656 5.53125 7.601562 5.527344 7.605469 5.523438 C 7.605469 5.519531 7.609375 5.519531 7.609375 5.519531 C 7.636719 5.488281 7.667969 5.460938 7.699219 5.433594 C 7.726562 5.410156 7.757812 5.382812 7.792969 5.359375 C 7.808594 5.347656 7.824219 5.339844 7.839844 5.328125 C 7.84375 5.324219 7.851562 5.316406 7.859375 5.3125 C 7.863281 5.3125 7.871094 5.308594 7.875 5.304688 C 7.875 5.304688 7.878906 5.300781 7.878906 5.300781 C 7.914062 5.28125 7.949219 5.265625 7.984375 5.25 C 8 5.246094 8.019531 5.238281 8.035156 5.234375 C 8.039062 5.234375 8.050781 5.230469 8.054688 5.230469 C 8.0625 5.226562 8.074219 5.222656 8.082031 5.222656 C 8.101562 5.21875 8.117188 5.214844 8.136719 5.214844 C 8.148438 5.214844 8.160156 5.210938 8.167969 5.210938 C 8.171875 5.210938 8.175781 5.210938 8.179688 5.210938 C 8.183594 5.210938 8.183594 5.210938 8.1875 5.210938 C 8.207031 5.214844 8.222656 5.214844 8.242188 5.21875 C 8.253906 5.21875 8.261719 5.222656 8.273438 5.222656 C 8.28125 5.226562 8.285156 5.226562 8.292969 5.230469 C 8.308594 5.238281 8.324219 5.246094 8.339844 5.253906 C 8.339844 5.253906 8.34375 5.257812 8.347656 5.257812 C 8.355469 5.261719 8.363281 5.269531 8.371094 5.277344 C 8.382812 5.285156 8.394531 5.296875 8.40625 5.304688 C 8.40625 5.308594 8.414062 5.316406 8.417969 5.320312 C 8.421875 5.328125 8.429688 5.332031 8.433594 5.339844 C 8.445312 5.355469 8.457031 5.367188 8.464844 5.382812 C 8.46875 5.390625 8.472656 5.398438 8.480469 5.40625 C 8.480469 5.410156 8.484375 5.417969 8.488281 5.421875 C 8.503906 5.457031 8.519531 5.488281 8.53125 5.523438 C 8.535156 5.542969 8.542969 5.5625 8.546875 5.578125 C 8.550781 5.582031 8.550781 5.589844 8.550781 5.59375 C 8.554688 5.601562 8.554688 5.613281 8.558594 5.621094 C 8.566406 5.664062 8.574219 5.703125 8.578125 5.742188 C 8.578125 5.761719 8.578125 5.78125 8.582031 5.800781 C 8.582031 5.808594 8.582031 5.816406 8.582031 5.824219 C 8.582031 5.832031 8.582031 5.835938 8.582031 5.839844 C 8.582031 5.84375 8.582031 5.847656 8.582031 5.851562 C 8.582031 5.855469 8.582031 5.859375 8.582031 5.859375 C 8.582031 5.863281 8.582031 5.871094 8.582031 5.875 C 8.578125 5.882812 8.578125 5.890625 8.578125 5.902344 C 8.578125 5.921875 8.574219 5.941406 8.574219 5.960938 C 8.570312 6.003906 8.5625 6.042969 8.554688 6.082031 C 8.550781 6.101562 8.546875 6.121094 8.542969 6.140625 C 8.539062 6.148438 8.539062 6.15625 8.535156 6.167969 C 8.535156 6.171875 8.53125 6.175781 8.53125 6.179688 C 8.53125 6.183594 8.53125 6.183594 8.53125 6.183594 C 8.53125 6.183594 8.53125 6.183594 8.53125 6.1875 C 8.503906 6.261719 8.476562 6.339844 8.445312 6.414062 C 8.425781 6.449219 8.410156 6.484375 8.390625 6.519531 C 8.378906 6.539062 8.371094 6.554688 8.359375 6.570312 C 8.359375 6.570312 8.359375 6.574219 8.359375 6.574219 C 8.355469 6.578125 8.355469 6.582031 8.351562 6.585938 C 8.34375 6.597656 8.339844 6.605469 8.332031 6.617188 C 8.289062 6.6875 8.238281 6.753906 8.1875 6.820312 C 8.089844 6.953125 7.976562 7.074219 7.867188 7.199219 C 7.839844 7.226562 7.808594 7.257812 7.78125 7.289062 C 7.722656 7.351562 7.808594 7.460938 7.882812 7.421875 C 7.933594 7.398438 7.988281 7.378906 8.039062 7.363281 C 8.042969 7.363281 8.042969 7.363281 8.042969 7.363281 C 8.050781 7.359375 8.058594 7.359375 8.066406 7.355469 C 8.078125 7.355469 8.085938 7.351562 8.097656 7.351562 C 8.125 7.34375 8.152344 7.339844 8.179688 7.339844 C 8.207031 7.335938 8.238281 7.332031 8.265625 7.332031 C 8.277344 7.332031 8.289062 7.332031 8.300781 7.332031 C 8.300781 7.332031 8.300781 7.332031 8.304688 7.332031 C 8.3125 7.332031 8.324219 7.332031 8.332031 7.332031 C 8.386719 7.335938 8.4375 7.34375 8.492188 7.351562 C 8.519531 7.355469 8.546875 7.363281 8.574219 7.371094 C 8.585938 7.371094 8.597656 7.375 8.609375 7.378906 C 8.613281 7.378906 8.621094 7.382812 8.621094 7.382812 C 8.628906 7.382812 8.636719 7.386719 8.644531 7.390625 C 8.695312 7.40625 8.746094 7.425781 8.796875 7.445312 C 8.851562 7.46875 8.902344 7.496094 8.953125 7.523438 C 8.960938 7.53125 8.96875 7.535156 8.980469 7.539062 C 8.980469 7.542969 8.988281 7.546875 8.988281 7.546875 C 8.996094 7.550781 9 7.554688 9.007812 7.558594 C 9.03125 7.574219 9.054688 7.589844 9.078125 7.605469 C 9.125 7.640625 9.171875 7.675781 9.214844 7.714844 C 9.238281 7.730469 9.257812 7.75 9.277344 7.769531 C 9.285156 7.777344 9.296875 7.785156 9.304688 7.796875 C 9.308594 7.800781 9.316406 7.804688 9.320312 7.808594 C 9.320312 7.8125 9.324219 7.8125 9.324219 7.816406 C 9.324219 7.816406 9.328125 7.816406 9.328125 7.820312 C 9.40625 7.902344 9.480469 7.992188 9.542969 8.089844 C 9.550781 8.105469 9.554688 8.117188 9.5625 8.128906 C 9.5625 8.128906 9.5625 8.128906 9.566406 8.128906 C 9.566406 8.136719 9.570312 8.140625 9.574219 8.148438 C 9.585938 8.171875 9.601562 8.199219 9.613281 8.226562 C 9.636719 8.28125 9.660156 8.335938 9.675781 8.390625 C 9.679688 8.402344 9.683594 8.417969 9.6875 8.433594 C 9.691406 8.4375 9.691406 8.441406 9.691406 8.445312 C 9.691406 8.441406 9.691406 8.441406 9.691406 8.4375 C 9.691406 8.441406 9.691406 8.449219 9.695312 8.449219 C 9.699219 8.476562 9.707031 8.503906 9.710938 8.53125 C 9.71875 8.585938 9.722656 8.644531 9.726562 8.699219 C 9.726562 8.707031 9.726562 8.710938 9.726562 8.71875 C 9.726562 8.71875 9.726562 8.722656 9.726562 8.726562 C 9.726562 8.726562 9.726562 8.738281 9.726562 8.738281 C 9.726562 8.746094 9.726562 8.75 9.726562 8.757812 C 9.722656 8.785156 9.722656 8.8125 9.71875 8.84375 C 9.710938 8.898438 9.699219 8.953125 9.6875 9.003906 C 9.6875 9.007812 9.6875 9.007812 9.6875 9.007812 C 9.6875 9.007812 9.683594 9.007812 9.683594 9.011719 C 9.683594 9.015625 9.683594 9.019531 9.679688 9.023438 C 9.675781 9.035156 9.671875 9.050781 9.667969 9.0625 C 9.660156 9.089844 9.648438 9.113281 9.636719 9.140625 C 9.625 9.164062 9.613281 9.1875 9.601562 9.210938 C 9.597656 9.214844 9.597656 9.21875 9.59375 9.222656 C 9.59375 9.226562 9.59375 9.226562 9.59375 9.226562 C 9.589844 9.226562 9.589844 9.226562 9.589844 9.230469 C 9.582031 9.242188 9.574219 9.253906 9.566406 9.269531 C 9.535156 9.3125 9.5 9.351562 9.464844 9.390625 C 9.464844 9.390625 9.460938 9.390625 9.460938 9.394531 C 9.457031 9.398438 9.453125 9.402344 9.445312 9.40625 C 9.4375 9.414062 9.429688 9.421875 9.421875 9.429688 C 9.402344 9.449219 9.378906 9.464844 9.355469 9.480469 C 9.335938 9.496094 9.316406 9.507812 9.292969 9.519531 C 9.292969 9.523438 9.292969 9.523438 9.289062 9.523438 C 9.285156 9.527344 9.28125 9.527344 9.277344 9.53125 C 9.265625 9.539062 9.25 9.542969 9.238281 9.550781 C 9.191406 9.574219 9.140625 9.59375 9.089844 9.609375 C 9.082031 9.613281 9.070312 9.617188 9.058594 9.621094 C 9.050781 9.621094 9.046875 9.625 9.039062 9.625 C 9.039062 9.625 9.035156 9.625 9.035156 9.625 C 9.011719 9.632812 8.984375 9.640625 8.957031 9.644531 C 8.90625 9.652344 8.851562 9.660156 8.800781 9.664062 C 8.773438 9.664062 8.75 9.664062 8.722656 9.664062 C 8.722656 9.664062 8.71875 9.664062 8.714844 9.664062 C 8.710938 9.664062 8.707031 9.664062 8.703125 9.664062 C 8.6875 9.664062 8.671875 9.664062 8.65625 9.664062 C 8.605469 9.660156 8.554688 9.652344 8.503906 9.644531 C 8.476562 9.640625 8.449219 9.636719 8.421875 9.628906 C 8.410156 9.625 8.398438 9.625 8.390625 9.621094 C 8.382812 9.617188 8.375 9.617188 8.371094 9.617188 C 8.367188 9.613281 8.335938 9.605469 8.359375 9.613281 C 8.320312 9.601562 8.28125 9.585938 8.246094 9.570312 C 8.203125 9.554688 8.164062 9.535156 8.125 9.511719 C 8.105469 9.503906 8.085938 9.492188 8.066406 9.480469 C 8.054688 9.476562 8.046875 9.46875 8.035156 9.464844 C 8.035156 9.464844 8.035156 9.460938 8.035156 9.460938 C 8.027344 9.460938 8.023438 9.457031 8.015625 9.453125 C 7.839844 9.34375 7.671875 9.214844 7.511719 9.078125 C 7.359375 8.949219 7.210938 8.816406 7.066406 8.679688 C 7.039062 8.652344 7.011719 8.625 6.980469 8.597656 C 6.949219 8.566406 6.886719 8.578125 6.859375 8.613281 C 6.828125 8.652344 6.839844 8.699219 6.875 8.734375 C 7.167969 9.023438 7.476562 9.304688 7.816406 9.53125 C 7.984375 9.644531 8.160156 9.742188 8.355469 9.792969 C 8.574219 9.847656 8.804688 9.855469 9.023438 9.808594 C 9.25 9.757812 9.460938 9.652344 9.621094 9.480469 C 9.777344 9.308594 9.867188 9.078125 9.890625 8.847656 C 9.917969 8.605469 9.871094 8.363281 9.769531 8.148438 Z M 8.1875 5.210938 C 8.191406 5.210938 8.191406 5.210938 8.1875 5.210938 Z M 8.550781 5.589844 C 8.550781 5.585938 8.546875 5.582031 8.550781 5.589844 Z M 6.992188 6.316406 C 6.984375 6.324219 6.988281 6.320312 6.992188 6.316406 Z M 3.894531 5.941406 C 3.898438 5.9375 3.898438 5.9375 3.898438 5.9375 C 3.902344 5.933594 3.902344 5.933594 3.894531 5.941406 Z M 4.207031 7.042969 C 4.214844 7.050781 4.210938 7.046875 4.210938 7.046875 C 4.207031 7.046875 4.207031 7.046875 4.207031 7.042969 Z M 6.433594 8.625 C 6.386719 8.605469 6.34375 8.625 6.320312 8.667969 C 6.28125 8.746094 6.238281 8.820312 6.195312 8.898438 C 6.191406 8.90625 6.183594 8.914062 6.179688 8.921875 C 6.179688 8.921875 6.179688 8.925781 6.179688 8.925781 C 6.175781 8.929688 6.171875 8.933594 6.167969 8.941406 C 6.15625 8.960938 6.144531 8.984375 6.128906 9.003906 C 6.101562 9.050781 6.074219 9.09375 6.046875 9.136719 C 5.933594 9.3125 5.8125 9.488281 5.679688 9.652344 C 5.617188 9.726562 5.550781 9.800781 5.484375 9.871094 C 5.480469 9.871094 5.476562 9.875 5.472656 9.878906 C 5.472656 9.882812 5.46875 9.882812 5.46875 9.882812 C 5.464844 9.890625 5.457031 9.894531 5.449219 9.902344 C 5.433594 9.917969 5.414062 9.933594 5.398438 9.949219 C 5.367188 9.976562 5.335938 10 5.304688 10.023438 C 5.285156 10.039062 5.261719 10.054688 5.242188 10.066406 C 5.230469 10.074219 5.21875 10.082031 5.207031 10.085938 C 5.203125 10.089844 5.199219 10.089844 5.199219 10.09375 C 5.199219 10.09375 5.183594 10.101562 5.179688 10.101562 C 5.132812 10.128906 5.085938 10.152344 5.035156 10.171875 C 4.984375 10.195312 4.933594 10.210938 4.878906 10.226562 C 4.875 10.226562 4.867188 10.230469 4.863281 10.230469 C 4.863281 10.230469 4.859375 10.230469 4.859375 10.230469 C 4.847656 10.234375 4.835938 10.238281 4.824219 10.242188 C 4.796875 10.246094 4.769531 10.25 4.742188 10.253906 C 4.6875 10.265625 4.632812 10.269531 4.582031 10.269531 C 4.574219 10.269531 4.566406 10.269531 4.558594 10.269531 C 4.558594 10.269531 4.558594 10.269531 4.554688 10.269531 C 4.546875 10.269531 4.535156 10.269531 4.523438 10.269531 C 4.492188 10.265625 4.464844 10.265625 4.4375 10.261719 C 4.410156 10.257812 4.386719 10.253906 4.363281 10.246094 C 4.351562 10.246094 4.339844 10.242188 4.328125 10.238281 C 4.324219 10.238281 4.316406 10.234375 4.3125 10.234375 C 4.308594 10.234375 4.308594 10.234375 4.308594 10.234375 C 4.304688 10.234375 4.304688 10.234375 4.300781 10.230469 C 4.25 10.214844 4.199219 10.195312 4.152344 10.171875 C 4.140625 10.164062 4.132812 10.160156 4.121094 10.15625 C 4.117188 10.152344 4.117188 10.152344 4.113281 10.148438 C 4.109375 10.148438 4.101562 10.144531 4.101562 10.140625 C 4.078125 10.128906 4.054688 10.113281 4.035156 10.097656 C 4.011719 10.078125 3.992188 10.0625 3.972656 10.042969 C 3.964844 10.035156 3.957031 10.027344 3.949219 10.019531 C 3.949219 10.019531 3.941406 10.015625 3.941406 10.011719 C 3.9375 10.007812 3.929688 10.003906 3.925781 9.996094 C 3.890625 9.960938 3.859375 9.917969 3.832031 9.875 C 3.824219 9.863281 3.816406 9.851562 3.808594 9.84375 C 3.804688 9.835938 3.800781 9.832031 3.800781 9.824219 C 3.796875 9.824219 3.796875 9.820312 3.796875 9.820312 C 3.78125 9.796875 3.769531 9.773438 3.757812 9.75 C 3.738281 9.699219 3.71875 9.652344 3.703125 9.601562 C 3.699219 9.589844 3.695312 9.574219 3.691406 9.5625 C 3.6875 9.558594 3.6875 9.550781 3.6875 9.546875 C 3.683594 9.542969 3.683594 9.539062 3.683594 9.539062 C 3.679688 9.511719 3.671875 9.484375 3.667969 9.460938 C 3.660156 9.402344 3.65625 9.347656 3.652344 9.292969 C 3.652344 9.28125 3.652344 9.265625 3.652344 9.253906 C 3.652344 9.25 3.652344 9.25 3.652344 9.25 C 3.652344 9.242188 3.652344 9.234375 3.652344 9.226562 C 3.65625 9.195312 3.65625 9.167969 3.660156 9.136719 C 3.667969 9.078125 3.675781 9.019531 3.691406 8.960938 C 3.691406 8.949219 3.695312 8.9375 3.699219 8.925781 C 3.699219 8.917969 3.703125 8.910156 3.703125 8.902344 C 3.707031 8.902344 3.707031 8.902344 3.707031 8.902344 C 3.707031 8.898438 3.707031 8.898438 3.707031 8.898438 C 3.714844 8.867188 3.722656 8.839844 3.734375 8.8125 C 3.753906 8.753906 3.777344 8.699219 3.804688 8.644531 C 3.816406 8.621094 3.828125 8.597656 3.839844 8.574219 C 3.847656 8.558594 3.855469 8.546875 3.863281 8.53125 C 3.867188 8.527344 3.871094 8.519531 3.875 8.511719 C 3.875 8.507812 3.875 8.507812 3.878906 8.507812 C 3.9375 8.410156 4.003906 8.316406 4.082031 8.230469 C 4.097656 8.210938 4.117188 8.191406 4.136719 8.171875 C 4.136719 8.171875 4.140625 8.167969 4.140625 8.167969 C 4.144531 8.164062 4.152344 8.160156 4.15625 8.152344 C 4.167969 8.144531 4.175781 8.132812 4.1875 8.121094 C 4.230469 8.085938 4.277344 8.046875 4.324219 8.015625 C 4.34375 8 4.363281 7.984375 4.386719 7.972656 C 4.398438 7.964844 4.410156 7.957031 4.421875 7.949219 C 4.425781 7.949219 4.425781 7.945312 4.429688 7.945312 C 4.421875 7.949219 4.441406 7.9375 4.445312 7.9375 C 4.496094 7.910156 4.546875 7.886719 4.597656 7.867188 C 4.621094 7.855469 4.644531 7.847656 4.667969 7.839844 C 4.683594 7.835938 4.695312 7.832031 4.707031 7.828125 C 4.6875 7.832031 4.707031 7.828125 4.714844 7.828125 C 4.71875 7.828125 4.726562 7.824219 4.734375 7.824219 C 4.785156 7.8125 4.839844 7.804688 4.894531 7.800781 C 4.910156 7.800781 4.921875 7.800781 4.9375 7.800781 C 4.941406 7.800781 4.949219 7.796875 4.949219 7.800781 C 4.949219 7.800781 4.945312 7.800781 4.941406 7.800781 C 4.945312 7.800781 4.949219 7.800781 4.957031 7.800781 C 4.984375 7.800781 5.011719 7.804688 5.039062 7.804688 C 5.082031 7.8125 5.121094 7.785156 5.132812 7.742188 C 5.148438 7.699219 5.125 7.660156 5.085938 7.640625 C 5.007812 7.597656 4.929688 7.554688 4.851562 7.511719 C 4.8125 7.488281 4.773438 7.464844 4.738281 7.445312 C 4.730469 7.441406 4.726562 7.4375 4.722656 7.433594 C 4.710938 7.429688 4.703125 7.421875 4.695312 7.417969 C 4.675781 7.40625 4.65625 7.394531 4.636719 7.378906 C 4.484375 7.285156 4.34375 7.179688 4.214844 7.054688 C 4.214844 7.050781 4.210938 7.046875 4.210938 7.046875 C 4.207031 7.046875 4.207031 7.046875 4.207031 7.042969 C 4.199219 7.035156 4.191406 7.027344 4.183594 7.019531 C 4.171875 7.003906 4.15625 6.988281 4.140625 6.96875 C 4.113281 6.9375 4.085938 6.902344 4.0625 6.871094 C 4.035156 6.835938 4.011719 6.800781 3.992188 6.761719 C 3.984375 6.753906 3.980469 6.75 3.976562 6.742188 C 3.976562 6.742188 3.96875 6.726562 3.96875 6.722656 C 3.957031 6.703125 3.949219 6.683594 3.9375 6.664062 C 3.917969 6.625 3.902344 6.585938 3.890625 6.546875 C 3.882812 6.527344 3.875 6.507812 3.871094 6.488281 C 3.867188 6.480469 3.863281 6.46875 3.863281 6.460938 C 3.863281 6.460938 3.863281 6.460938 3.863281 6.457031 C 3.859375 6.453125 3.859375 6.445312 3.859375 6.441406 C 3.847656 6.398438 3.839844 6.355469 3.835938 6.316406 C 3.835938 6.296875 3.832031 6.277344 3.832031 6.257812 C 3.832031 6.246094 3.832031 6.238281 3.832031 6.226562 C 3.832031 6.222656 3.832031 6.214844 3.832031 6.210938 C 3.832031 6.207031 3.832031 6.207031 3.832031 6.203125 C 3.832031 6.164062 3.835938 6.125 3.84375 6.085938 C 3.847656 6.070312 3.851562 6.054688 3.855469 6.039062 C 3.855469 6.039062 3.859375 6.027344 3.859375 6.023438 C 3.863281 6.011719 3.867188 6 3.871094 5.988281 C 3.878906 5.972656 3.886719 5.957031 3.894531 5.941406 C 3.898438 5.941406 3.898438 5.9375 3.898438 5.9375 C 3.902344 5.933594 3.902344 5.933594 3.902344 5.929688 C 3.910156 5.921875 3.914062 5.914062 3.921875 5.90625 C 3.929688 5.898438 3.933594 5.890625 3.941406 5.882812 C 3.941406 5.882812 3.941406 5.882812 3.941406 5.878906 C 3.945312 5.878906 3.945312 5.878906 3.949219 5.875 C 3.964844 5.863281 3.980469 5.847656 4 5.835938 C 4 5.835938 4.015625 5.828125 4.019531 5.828125 C 4.027344 5.824219 4.035156 5.820312 4.046875 5.816406 C 4.054688 5.8125 4.066406 5.808594 4.074219 5.804688 C 4.082031 5.804688 4.085938 5.800781 4.089844 5.800781 C 4.09375 5.800781 4.09375 5.796875 4.09375 5.796875 C 4.09375 5.796875 4.097656 5.796875 4.097656 5.796875 C 4.140625 5.789062 4.179688 5.78125 4.222656 5.78125 C 4.230469 5.78125 4.238281 5.78125 4.242188 5.78125 C 4.242188 5.78125 4.242188 5.78125 4.246094 5.78125 C 4.253906 5.78125 4.265625 5.78125 4.273438 5.78125 C 4.292969 5.785156 4.316406 5.785156 4.335938 5.789062 C 4.359375 5.792969 4.382812 5.796875 4.402344 5.800781 C 4.414062 5.804688 4.421875 5.804688 4.433594 5.808594 C 4.4375 5.808594 4.441406 5.8125 4.449219 5.8125 C 4.449219 5.8125 4.457031 5.816406 4.460938 5.816406 C 4.460938 5.816406 4.464844 5.816406 4.464844 5.816406 C 4.472656 5.820312 4.480469 5.820312 4.484375 5.824219 C 4.496094 5.828125 4.503906 5.832031 4.515625 5.835938 C 4.535156 5.839844 4.558594 5.847656 4.578125 5.859375 C 4.617188 5.875 4.660156 5.894531 4.699219 5.914062 C 4.769531 5.945312 4.839844 5.984375 4.90625 6.023438 C 4.921875 6.03125 4.9375 6.039062 4.953125 6.050781 C 4.960938 6.054688 4.96875 6.058594 4.976562 6.066406 C 4.980469 6.066406 4.980469 6.066406 4.984375 6.070312 C 4.984375 6.070312 4.988281 6.070312 4.992188 6.074219 C 5.023438 6.09375 5.058594 6.113281 5.089844 6.136719 C 5.160156 6.179688 5.230469 6.226562 5.296875 6.273438 C 5.433594 6.367188 5.566406 6.46875 5.695312 6.578125 C 5.757812 6.628906 5.820312 6.683594 5.878906 6.738281 C 5.90625 6.765625 5.933594 6.792969 5.960938 6.820312 C 5.964844 6.824219 5.976562 6.835938 5.976562 6.835938 C 5.980469 6.839844 5.984375 6.84375 5.992188 6.851562 C 6.003906 6.863281 6.015625 6.878906 6.027344 6.890625 C 6.054688 6.917969 6.078125 6.945312 6.097656 6.972656 C 6.128906 7.007812 6.183594 7.019531 6.222656 6.988281 C 6.253906 6.960938 6.269531 6.902344 6.238281 6.867188 C 6.019531 6.605469 5.753906 6.386719 5.484375 6.191406 C 5.339844 6.089844 5.195312 5.992188 5.046875 5.90625 C 4.902344 5.816406 4.75 5.734375 4.589844 5.675781 C 4.40625 5.609375 4.203125 5.578125 4.011719 5.640625 C 3.921875 5.671875 3.835938 5.726562 3.777344 5.808594 C 3.722656 5.878906 3.691406 5.964844 3.671875 6.054688 C 3.636719 6.234375 3.664062 6.421875 3.722656 6.59375 C 3.78125 6.765625 3.875 6.925781 3.992188 7.066406 C 4.195312 7.308594 4.460938 7.488281 4.738281 7.644531 C 4.378906 7.714844 4.054688 7.957031 3.839844 8.253906 C 3.546875 8.648438 3.390625 9.171875 3.539062 9.65625 C 3.605469 9.875 3.734375 10.078125 3.910156 10.222656 C 4.097656 10.371094 4.332031 10.441406 4.566406 10.445312 C 4.792969 10.445312 5.023438 10.382812 5.222656 10.277344 C 5.316406 10.230469 5.40625 10.171875 5.484375 10.105469 C 5.5625 10.039062 5.632812 9.96875 5.699219 9.894531 C 5.84375 9.734375 5.972656 9.558594 6.09375 9.378906 C 6.210938 9.207031 6.320312 9.03125 6.421875 8.847656 C 6.441406 8.8125 6.460938 8.773438 6.480469 8.738281 C 6.5 8.699219 6.476562 8.640625 6.433594 8.625 Z M 4.246094 5.78125 C 4.25 5.78125 4.257812 5.78125 4.246094 5.78125 Z M 4.722656 7.433594 C 4.710938 7.429688 4.71875 7.433594 4.722656 7.433594 Z M 4.722656 7.433594 "/></g><g clip-rule="nonzero" clip-path="url(#9da7ebf5a8)"><path style=" stroke:none;fill-rule:nonzero;fill:#87b1f4;fill-opacity:1;" d="M 5.054688 9.378906 C 5.050781 9.378906 5.050781 9.378906 5.046875 9.382812 C 5.042969 9.382812 5.046875 9.378906 5.054688 9.378906 Z M 5.429688 8.949219 C 5.433594 8.984375 5.433594 9.015625 5.429688 9.050781 C 5.421875 9.285156 5.257812 9.503906 5.035156 9.578125 C 4.914062 9.617188 4.789062 9.617188 4.664062 9.578125 C 4.554688 9.542969 4.457031 9.472656 4.386719 9.378906 C 4.316406 9.285156 4.269531 9.167969 4.265625 9.046875 C 4.261719 8.921875 4.292969 8.800781 4.363281 8.695312 C 4.488281 8.492188 4.746094 8.390625 4.976562 8.445312 C 5.097656 8.472656 5.203125 8.539062 5.285156 8.628906 C 5.363281 8.714844 5.414062 8.832031 5.429688 8.949219 Z M 5.207031 8.816406 C 5.210938 8.820312 5.210938 8.820312 5.207031 8.816406 Z M 4.492188 9.222656 C 4.492188 9.226562 4.492188 9.226562 4.492188 9.226562 C 4.492188 9.222656 4.484375 9.214844 4.492188 9.222656 Z M 5.257812 9.027344 C 5.257812 9.023438 5.257812 9.019531 5.257812 9.019531 C 5.257812 9.019531 5.257812 9.023438 5.257812 9.023438 C 5.257812 9.019531 5.257812 9.011719 5.257812 9.007812 C 5.257812 8.996094 5.257812 8.984375 5.253906 8.96875 C 5.253906 8.957031 5.253906 8.945312 5.25 8.933594 C 5.25 8.925781 5.246094 8.921875 5.246094 8.914062 C 5.238281 8.890625 5.230469 8.867188 5.21875 8.84375 C 5.214844 8.832031 5.207031 8.820312 5.203125 8.8125 C 5.203125 8.808594 5.203125 8.808594 5.203125 8.808594 C 5.199219 8.804688 5.195312 8.800781 5.191406 8.792969 C 5.179688 8.773438 5.164062 8.753906 5.148438 8.738281 C 5.148438 8.734375 5.144531 8.730469 5.140625 8.730469 C 5.140625 8.726562 5.136719 8.722656 5.136719 8.722656 C 5.125 8.714844 5.117188 8.707031 5.109375 8.699219 C 5.101562 8.691406 5.089844 8.683594 5.078125 8.675781 C 5.074219 8.675781 5.070312 8.671875 5.0625 8.667969 C 5.0625 8.667969 5.0625 8.664062 5.058594 8.664062 C 5.054688 8.664062 5.050781 8.660156 5.046875 8.65625 C 5.042969 8.65625 5.039062 8.652344 5.03125 8.648438 C 5.023438 8.644531 5.011719 8.640625 5 8.636719 C 4.988281 8.632812 4.976562 8.625 4.964844 8.621094 C 4.960938 8.621094 4.953125 8.621094 4.949219 8.617188 C 4.925781 8.613281 4.902344 8.609375 4.875 8.605469 C 4.871094 8.605469 4.863281 8.605469 4.855469 8.605469 C 4.84375 8.605469 4.832031 8.605469 4.820312 8.605469 C 4.792969 8.609375 4.769531 8.613281 4.746094 8.617188 C 4.742188 8.621094 4.742188 8.621094 4.738281 8.621094 C 4.734375 8.621094 4.730469 8.625 4.726562 8.625 C 4.714844 8.628906 4.703125 8.632812 4.691406 8.636719 C 4.679688 8.644531 4.667969 8.648438 4.65625 8.652344 C 4.652344 8.65625 4.648438 8.660156 4.640625 8.660156 C 4.640625 8.660156 4.640625 8.664062 4.640625 8.664062 C 4.621094 8.675781 4.601562 8.6875 4.582031 8.703125 C 4.578125 8.707031 4.574219 8.710938 4.566406 8.71875 C 4.566406 8.71875 4.5625 8.722656 4.558594 8.726562 C 4.558594 8.726562 4.554688 8.730469 4.554688 8.730469 C 4.550781 8.734375 4.546875 8.738281 4.542969 8.742188 C 4.527344 8.761719 4.515625 8.78125 4.5 8.800781 C 4.5 8.800781 4.5 8.800781 4.5 8.804688 C 4.496094 8.808594 4.492188 8.8125 4.488281 8.816406 C 4.484375 8.828125 4.480469 8.839844 4.476562 8.847656 C 4.46875 8.859375 4.464844 8.871094 4.460938 8.882812 C 4.457031 8.890625 4.457031 8.894531 4.457031 8.898438 C 4.457031 8.898438 4.457031 8.902344 4.453125 8.902344 C 4.453125 8.914062 4.449219 8.925781 4.445312 8.9375 C 4.445312 8.949219 4.441406 8.960938 4.441406 8.972656 C 4.441406 8.984375 4.4375 8.996094 4.4375 9.011719 C 4.4375 9.011719 4.4375 9.015625 4.4375 9.015625 C 4.4375 9.019531 4.4375 9.027344 4.4375 9.03125 C 4.441406 9.054688 4.441406 9.082031 4.449219 9.105469 C 4.449219 9.113281 4.449219 9.121094 4.453125 9.125 C 4.457031 9.136719 4.460938 9.152344 4.464844 9.164062 C 4.46875 9.175781 4.472656 9.183594 4.476562 9.195312 C 4.480469 9.207031 4.492188 9.21875 4.492188 9.226562 C 4.496094 9.230469 4.496094 9.230469 4.496094 9.230469 C 4.5 9.238281 4.5 9.242188 4.503906 9.246094 C 4.511719 9.253906 4.519531 9.265625 4.527344 9.273438 C 4.535156 9.285156 4.542969 9.292969 4.550781 9.300781 C 4.550781 9.304688 4.554688 9.308594 4.554688 9.308594 C 4.558594 9.3125 4.5625 9.316406 4.5625 9.316406 C 4.578125 9.332031 4.597656 9.347656 4.617188 9.359375 C 4.621094 9.363281 4.628906 9.367188 4.632812 9.371094 C 4.632812 9.371094 4.632812 9.371094 4.636719 9.375 C 4.644531 9.375 4.652344 9.382812 4.664062 9.386719 C 4.683594 9.398438 4.707031 9.410156 4.730469 9.417969 C 4.730469 9.417969 4.734375 9.417969 4.738281 9.417969 C 4.742188 9.417969 4.746094 9.421875 4.75 9.421875 C 4.761719 9.425781 4.773438 9.425781 4.785156 9.429688 C 4.796875 9.429688 4.808594 9.433594 4.824219 9.433594 C 4.828125 9.433594 4.835938 9.433594 4.839844 9.433594 C 4.867188 9.433594 4.890625 9.429688 4.917969 9.425781 C 4.929688 9.425781 4.941406 9.421875 4.953125 9.421875 C 4.953125 9.421875 4.953125 9.421875 4.953125 9.417969 C 4.960938 9.417969 4.964844 9.417969 4.972656 9.414062 C 4.996094 9.40625 5.019531 9.398438 5.039062 9.386719 C 5.042969 9.382812 5.042969 9.382812 5.046875 9.382812 C 5.046875 9.382812 5.046875 9.382812 5.050781 9.378906 C 5.050781 9.378906 5.054688 9.378906 5.054688 9.378906 C 5.054688 9.378906 5.058594 9.375 5.058594 9.375 C 5.066406 9.371094 5.078125 9.363281 5.085938 9.355469 C 5.097656 9.347656 5.105469 9.339844 5.117188 9.332031 C 5.121094 9.328125 5.125 9.324219 5.132812 9.320312 C 5.132812 9.316406 5.136719 9.316406 5.136719 9.3125 C 5.136719 9.3125 5.136719 9.3125 5.140625 9.3125 C 5.140625 9.3125 5.140625 9.308594 5.144531 9.308594 C 5.148438 9.304688 5.152344 9.300781 5.15625 9.296875 C 5.160156 9.285156 5.167969 9.277344 5.175781 9.269531 C 5.183594 9.257812 5.191406 9.25 5.199219 9.238281 C 5.199219 9.238281 5.199219 9.234375 5.199219 9.234375 C 5.199219 9.234375 5.199219 9.234375 5.199219 9.238281 C 5.199219 9.234375 5.199219 9.234375 5.199219 9.234375 C 5.199219 9.234375 5.199219 9.230469 5.203125 9.230469 C 5.203125 9.230469 5.203125 9.226562 5.203125 9.226562 C 5.203125 9.226562 5.207031 9.222656 5.207031 9.222656 C 5.21875 9.203125 5.226562 9.179688 5.234375 9.15625 C 5.238281 9.148438 5.238281 9.144531 5.242188 9.136719 C 5.242188 9.136719 5.242188 9.136719 5.242188 9.132812 C 5.246094 9.125 5.25 9.113281 5.25 9.101562 C 5.253906 9.078125 5.257812 9.054688 5.257812 9.03125 C 5.257812 9.03125 5.257812 9.027344 5.257812 9.027344 Z M 5.132812 9.320312 C 5.132812 9.316406 5.136719 9.3125 5.140625 9.3125 C 5.132812 9.316406 5.128906 9.320312 5.132812 9.320312 Z M 5.257812 9.023438 C 5.257812 9.03125 5.257812 9.03125 5.257812 9.03125 C 5.257812 9.03125 5.257812 9.03125 5.257812 9.027344 C 5.257812 9.027344 5.257812 9.023438 5.257812 9.023438 Z M 5.199219 9.234375 C 5.199219 9.230469 5.203125 9.230469 5.203125 9.226562 C 5.203125 9.222656 5.203125 9.226562 5.199219 9.234375 Z M 8.890625 8.582031 C 8.890625 8.589844 8.890625 8.59375 8.890625 8.59375 C 8.890625 8.589844 8.890625 8.589844 8.890625 8.589844 C 8.890625 8.589844 8.890625 8.585938 8.890625 8.585938 C 8.890625 8.585938 8.890625 8.585938 8.890625 8.582031 Z M 9.0625 8.609375 C 9.054688 8.84375 8.886719 9.066406 8.667969 9.136719 C 8.546875 9.175781 8.417969 9.175781 8.296875 9.136719 C 8.1875 9.105469 8.089844 9.03125 8.019531 8.941406 C 7.945312 8.847656 7.902344 8.726562 7.898438 8.609375 C 7.890625 8.480469 7.925781 8.363281 7.992188 8.257812 C 8.121094 8.054688 8.378906 7.949219 8.609375 8.003906 C 8.726562 8.035156 8.832031 8.097656 8.914062 8.1875 C 8.996094 8.277344 9.042969 8.390625 9.058594 8.507812 C 9.0625 8.542969 9.0625 8.578125 9.0625 8.609375 Z M 8.839844 8.378906 C 8.839844 8.378906 8.839844 8.382812 8.839844 8.378906 Z M 8.121094 8.785156 C 8.125 8.785156 8.125 8.785156 8.125 8.789062 C 8.121094 8.785156 8.117188 8.773438 8.121094 8.785156 Z M 8.890625 8.585938 C 8.890625 8.582031 8.890625 8.582031 8.890625 8.578125 C 8.890625 8.582031 8.890625 8.582031 8.890625 8.582031 C 8.890625 8.578125 8.890625 8.574219 8.890625 8.570312 C 8.890625 8.554688 8.886719 8.542969 8.886719 8.53125 C 8.886719 8.519531 8.882812 8.503906 8.878906 8.492188 C 8.878906 8.488281 8.878906 8.480469 8.878906 8.476562 C 8.875 8.472656 8.875 8.472656 8.875 8.472656 C 8.871094 8.449219 8.859375 8.425781 8.851562 8.402344 C 8.847656 8.394531 8.835938 8.382812 8.835938 8.371094 C 8.835938 8.371094 8.832031 8.371094 8.832031 8.371094 C 8.832031 8.363281 8.828125 8.359375 8.824219 8.355469 C 8.808594 8.332031 8.796875 8.316406 8.777344 8.296875 C 8.777344 8.296875 8.773438 8.292969 8.773438 8.289062 C 8.769531 8.285156 8.765625 8.285156 8.765625 8.285156 C 8.757812 8.277344 8.75 8.269531 8.742188 8.261719 C 8.730469 8.253906 8.722656 8.246094 8.710938 8.238281 C 8.707031 8.234375 8.699219 8.230469 8.695312 8.226562 C 8.695312 8.226562 8.691406 8.226562 8.691406 8.226562 C 8.6875 8.222656 8.679688 8.21875 8.679688 8.21875 C 8.675781 8.214844 8.667969 8.210938 8.664062 8.210938 C 8.652344 8.203125 8.644531 8.199219 8.632812 8.195312 C 8.621094 8.191406 8.609375 8.1875 8.597656 8.183594 C 8.589844 8.183594 8.585938 8.179688 8.582031 8.179688 C 8.554688 8.171875 8.53125 8.167969 8.507812 8.167969 C 8.5 8.167969 8.492188 8.164062 8.484375 8.164062 C 8.472656 8.164062 8.460938 8.167969 8.449219 8.167969 C 8.425781 8.167969 8.402344 8.175781 8.375 8.179688 C 8.375 8.179688 8.371094 8.179688 8.371094 8.179688 C 8.367188 8.183594 8.359375 8.183594 8.355469 8.183594 C 8.34375 8.1875 8.332031 8.195312 8.320312 8.199219 C 8.308594 8.203125 8.296875 8.207031 8.289062 8.214844 C 8.285156 8.214844 8.277344 8.21875 8.273438 8.222656 C 8.273438 8.222656 8.273438 8.222656 8.269531 8.222656 C 8.25 8.234375 8.234375 8.25 8.214844 8.265625 C 8.210938 8.269531 8.203125 8.273438 8.199219 8.277344 C 8.199219 8.277344 8.195312 8.28125 8.191406 8.285156 C 8.1875 8.289062 8.1875 8.289062 8.1875 8.289062 C 8.183594 8.292969 8.179688 8.296875 8.175781 8.300781 C 8.160156 8.320312 8.144531 8.339844 8.132812 8.359375 C 8.132812 8.363281 8.128906 8.363281 8.128906 8.363281 C 8.128906 8.371094 8.125 8.375 8.121094 8.378906 C 8.117188 8.386719 8.109375 8.398438 8.105469 8.410156 C 8.101562 8.421875 8.097656 8.433594 8.09375 8.445312 C 8.089844 8.449219 8.089844 8.453125 8.085938 8.460938 C 8.085938 8.472656 8.078125 8.488281 8.078125 8.5 C 8.074219 8.511719 8.074219 8.523438 8.070312 8.53125 C 8.070312 8.546875 8.070312 8.558594 8.070312 8.570312 C 8.070312 8.570312 8.070312 8.574219 8.070312 8.574219 C 8.070312 8.582031 8.070312 8.585938 8.070312 8.589844 C 8.070312 8.617188 8.074219 8.640625 8.078125 8.667969 C 8.078125 8.671875 8.082031 8.679688 8.082031 8.6875 C 8.085938 8.699219 8.089844 8.710938 8.09375 8.722656 C 8.097656 8.734375 8.105469 8.746094 8.109375 8.757812 C 8.113281 8.765625 8.121094 8.777344 8.125 8.789062 C 8.125 8.789062 8.125 8.792969 8.128906 8.792969 C 8.128906 8.796875 8.132812 8.800781 8.136719 8.804688 C 8.144531 8.816406 8.148438 8.824219 8.15625 8.835938 C 8.164062 8.84375 8.171875 8.855469 8.179688 8.863281 C 8.179688 8.863281 8.183594 8.867188 8.1875 8.871094 C 8.191406 8.871094 8.191406 8.875 8.195312 8.875 C 8.210938 8.890625 8.226562 8.90625 8.246094 8.921875 C 8.253906 8.925781 8.257812 8.929688 8.265625 8.933594 C 8.277344 8.9375 8.285156 8.945312 8.292969 8.949219 C 8.316406 8.960938 8.335938 8.96875 8.359375 8.976562 C 8.363281 8.976562 8.367188 8.976562 8.367188 8.980469 C 8.375 8.980469 8.378906 8.980469 8.382812 8.980469 C 8.394531 8.984375 8.402344 8.988281 8.414062 8.988281 C 8.429688 8.992188 8.441406 8.992188 8.453125 8.992188 C 8.460938 8.992188 8.464844 8.992188 8.46875 8.992188 C 8.472656 8.992188 8.472656 8.992188 8.472656 8.992188 C 8.496094 8.992188 8.523438 8.992188 8.546875 8.988281 C 8.558594 8.984375 8.570312 8.984375 8.582031 8.980469 C 8.585938 8.980469 8.585938 8.980469 8.585938 8.980469 C 8.589844 8.976562 8.597656 8.976562 8.605469 8.972656 C 8.628906 8.964844 8.648438 8.957031 8.671875 8.945312 C 8.671875 8.945312 8.675781 8.945312 8.675781 8.941406 C 8.679688 8.941406 8.679688 8.941406 8.683594 8.941406 C 8.683594 8.941406 8.683594 8.9375 8.6875 8.9375 C 8.699219 8.929688 8.707031 8.921875 8.71875 8.917969 C 8.726562 8.910156 8.738281 8.902344 8.746094 8.894531 C 8.753906 8.890625 8.757812 8.882812 8.761719 8.878906 C 8.765625 8.878906 8.765625 8.875 8.769531 8.875 C 8.769531 8.875 8.769531 8.871094 8.769531 8.871094 C 8.769531 8.871094 8.769531 8.871094 8.773438 8.871094 C 8.769531 8.871094 8.769531 8.871094 8.769531 8.871094 C 8.773438 8.871094 8.773438 8.871094 8.773438 8.867188 C 8.777344 8.863281 8.78125 8.859375 8.785156 8.855469 C 8.792969 8.847656 8.800781 8.839844 8.808594 8.828125 C 8.816406 8.820312 8.820312 8.808594 8.828125 8.796875 C 8.828125 8.796875 8.832031 8.796875 8.832031 8.792969 C 8.832031 8.792969 8.832031 8.792969 8.832031 8.789062 C 8.835938 8.789062 8.835938 8.789062 8.835938 8.785156 C 8.847656 8.761719 8.859375 8.738281 8.867188 8.71875 C 8.867188 8.710938 8.871094 8.703125 8.875 8.699219 C 8.875 8.695312 8.875 8.695312 8.875 8.695312 C 8.875 8.683594 8.878906 8.675781 8.882812 8.664062 C 8.886719 8.640625 8.890625 8.617188 8.890625 8.59375 C 8.890625 8.59375 8.890625 8.589844 8.890625 8.585938 Z M 8.828125 8.796875 C 8.832031 8.796875 8.832031 8.792969 8.832031 8.792969 C 8.832031 8.792969 8.832031 8.789062 8.835938 8.785156 C 8.835938 8.785156 8.832031 8.785156 8.828125 8.796875 Z M 8.675781 8.941406 C 8.679688 8.941406 8.683594 8.9375 8.6875 8.9375 C 8.675781 8.941406 8.675781 8.941406 8.675781 8.941406 Z M 8.761719 8.878906 C 8.765625 8.875 8.769531 8.875 8.769531 8.871094 C 8.761719 8.878906 8.761719 8.878906 8.761719 8.878906 Z M 8.761719 8.878906 "/></g><g clip-rule="nonzero" clip-path="url(#ca7fb95140)"><path style=" stroke:none;fill-rule:nonzero;fill:#ed8551;fill-opacity:1;" d="M 5.910156 4.996094 C 5.90625 4.972656 5.910156 4.988281 5.910156 4.996094 Z M 5.398438 4.488281 C 5.402344 4.488281 5.40625 4.488281 5.40625 4.484375 C 5.40625 4.488281 5.402344 4.488281 5.398438 4.488281 Z M 7.304688 4.5 C 7.257812 4.507812 7.214844 4.46875 7.207031 4.421875 C 7.207031 4.410156 7.203125 4.398438 7.203125 4.386719 C 7.199219 4.378906 7.199219 4.375 7.195312 4.371094 C 7.191406 4.347656 7.179688 4.328125 7.171875 4.308594 C 7.167969 4.308594 7.167969 4.304688 7.167969 4.304688 C 7.164062 4.300781 7.164062 4.296875 7.160156 4.292969 C 7.15625 4.285156 7.148438 4.277344 7.140625 4.265625 C 7.132812 4.257812 7.125 4.25 7.117188 4.238281 C 7.113281 4.234375 7.109375 4.230469 7.105469 4.226562 C 7.089844 4.210938 7.070312 4.195312 7.050781 4.183594 C 7.046875 4.179688 7.042969 4.179688 7.039062 4.175781 C 7.027344 4.167969 7.019531 4.164062 7.007812 4.160156 C 6.996094 4.15625 6.988281 4.152344 6.976562 4.144531 C 6.96875 4.144531 6.960938 4.140625 6.957031 4.140625 C 6.953125 4.136719 6.953125 4.136719 6.949219 4.136719 C 6.945312 4.136719 6.941406 4.136719 6.941406 4.132812 C 6.933594 4.132812 6.929688 4.132812 6.921875 4.132812 C 6.914062 4.128906 6.902344 4.128906 6.890625 4.125 C 6.886719 4.125 6.875 4.125 6.863281 4.121094 C 6.867188 4.125 6.863281 4.125 6.855469 4.125 C 6.851562 4.125 6.847656 4.125 6.84375 4.125 C 6.820312 4.125 6.800781 4.128906 6.777344 4.132812 C 6.773438 4.132812 6.765625 4.132812 6.761719 4.136719 C 6.757812 4.136719 6.753906 4.136719 6.75 4.136719 C 6.753906 4.136719 6.757812 4.136719 6.761719 4.136719 C 6.757812 4.132812 6.734375 4.144531 6.734375 4.144531 C 6.710938 4.152344 6.691406 4.160156 6.671875 4.167969 C 6.667969 4.171875 6.65625 4.175781 6.648438 4.179688 C 6.648438 4.179688 6.648438 4.179688 6.644531 4.183594 C 6.640625 4.183594 6.632812 4.1875 6.628906 4.191406 C 6.613281 4.203125 6.59375 4.214844 6.578125 4.230469 C 6.570312 4.238281 6.558594 4.246094 6.550781 4.253906 C 6.546875 4.257812 6.542969 4.261719 6.539062 4.261719 C 6.542969 4.261719 6.542969 4.261719 6.542969 4.261719 C 6.542969 4.261719 6.539062 4.261719 6.539062 4.261719 C 6.527344 4.277344 6.511719 4.292969 6.5 4.3125 C 6.492188 4.320312 6.484375 4.332031 6.476562 4.34375 C 6.476562 4.347656 6.472656 4.351562 6.46875 4.355469 C 6.457031 4.375 6.449219 4.394531 6.441406 4.414062 C 6.429688 4.4375 6.421875 4.460938 6.414062 4.484375 C 6.410156 4.496094 6.40625 4.503906 6.402344 4.515625 C 6.40625 4.492188 6.402344 4.523438 6.398438 4.53125 C 6.375 4.625 6.367188 4.71875 6.359375 4.816406 C 6.339844 5.039062 6.328125 5.265625 6.3125 5.492188 C 6.300781 5.65625 6.289062 5.820312 6.277344 5.984375 C 6.28125 6.015625 6.285156 6.050781 6.289062 6.082031 C 6.402344 6.101562 6.484375 6.191406 6.539062 6.289062 C 6.605469 6.402344 6.65625 6.527344 6.699219 6.652344 C 6.785156 6.921875 6.832031 7.199219 6.871094 7.480469 C 6.878906 7.550781 6.886719 7.625 6.898438 7.695312 C 6.9375 7.992188 6.96875 8.285156 7 8.582031 C 7.011719 8.730469 7.027344 8.878906 7.039062 9.027344 C 7.050781 9.167969 7.0625 9.3125 7.058594 9.457031 C 7.050781 9.589844 7.023438 9.734375 6.941406 9.839844 C 6.902344 9.890625 6.851562 9.9375 6.789062 9.957031 C 6.714844 9.980469 6.640625 9.96875 6.578125 9.925781 C 6.480469 9.855469 6.453125 9.722656 6.433594 9.609375 C 6.410156 9.464844 6.390625 9.316406 6.371094 9.171875 C 6.335938 8.882812 6.304688 8.589844 6.273438 8.300781 C 6.238281 8.007812 6.207031 7.71875 6.164062 7.425781 C 6.121094 7.136719 6.070312 6.847656 6.003906 6.5625 C 5.996094 6.527344 5.988281 6.492188 5.976562 6.457031 C 5.976562 6.449219 5.972656 6.4375 5.96875 6.429688 C 5.96875 6.425781 5.96875 6.425781 5.96875 6.425781 C 5.96875 6.425781 5.964844 6.40625 5.964844 6.40625 C 5.964844 6.402344 5.964844 6.398438 5.964844 6.398438 C 5.957031 6.363281 5.957031 6.320312 5.964844 6.285156 C 5.976562 6.21875 6.011719 6.164062 6.070312 6.128906 C 6.078125 6.125 6.085938 6.117188 6.09375 6.113281 C 6.097656 6.074219 6.101562 6.035156 6.101562 5.992188 C 6.082031 5.820312 6.054688 5.652344 6.019531 5.480469 C 6 5.378906 5.980469 5.277344 5.957031 5.175781 C 5.945312 5.125 5.929688 5.074219 5.917969 5.023438 C 5.917969 5.011719 5.914062 5.003906 5.914062 4.996094 C 5.910156 4.996094 5.910156 4.996094 5.910156 4.996094 C 5.910156 4.984375 5.90625 4.976562 5.902344 4.964844 C 5.898438 4.949219 5.894531 4.929688 5.890625 4.914062 C 5.867188 4.832031 5.835938 4.757812 5.800781 4.683594 C 5.796875 4.679688 5.796875 4.679688 5.796875 4.679688 C 5.792969 4.675781 5.792969 4.671875 5.789062 4.667969 C 5.785156 4.660156 5.777344 4.652344 5.773438 4.644531 C 5.761719 4.628906 5.75 4.613281 5.738281 4.597656 C 5.734375 4.59375 5.730469 4.589844 5.726562 4.582031 C 5.722656 4.582031 5.722656 4.582031 5.722656 4.578125 C 5.71875 4.574219 5.710938 4.570312 5.707031 4.566406 C 5.691406 4.554688 5.679688 4.542969 5.664062 4.53125 C 5.660156 4.527344 5.65625 4.527344 5.65625 4.527344 C 5.652344 4.523438 5.652344 4.523438 5.652344 4.523438 C 5.652344 4.523438 5.648438 4.523438 5.648438 4.523438 C 5.640625 4.515625 5.632812 4.511719 5.625 4.507812 C 5.609375 4.5 5.589844 4.496094 5.574219 4.488281 C 5.574219 4.488281 5.570312 4.488281 5.570312 4.488281 C 5.566406 4.488281 5.5625 4.488281 5.558594 4.484375 C 5.546875 4.484375 5.539062 4.480469 5.527344 4.480469 C 5.519531 4.480469 5.507812 4.476562 5.5 4.476562 C 5.496094 4.476562 5.492188 4.476562 5.488281 4.476562 C 5.46875 4.476562 5.449219 4.476562 5.429688 4.480469 C 5.421875 4.484375 5.414062 4.484375 5.40625 4.484375 C 5.410156 4.484375 5.410156 4.484375 5.410156 4.484375 C 5.410156 4.484375 5.410156 4.484375 5.40625 4.484375 C 5.40625 4.484375 5.40625 4.488281 5.402344 4.488281 C 5.398438 4.488281 5.398438 4.488281 5.398438 4.488281 C 5.398438 4.488281 5.394531 4.488281 5.394531 4.488281 C 5.375 4.496094 5.359375 4.503906 5.339844 4.511719 C 5.335938 4.515625 5.335938 4.515625 5.335938 4.515625 C 5.332031 4.515625 5.332031 4.519531 5.328125 4.519531 C 5.320312 4.523438 5.316406 4.527344 5.308594 4.535156 C 5.300781 4.539062 5.292969 4.546875 5.289062 4.550781 C 5.285156 4.554688 5.28125 4.558594 5.28125 4.558594 C 5.269531 4.574219 5.257812 4.589844 5.246094 4.601562 C 5.246094 4.601562 5.246094 4.601562 5.246094 4.605469 C 5.246094 4.605469 5.246094 4.609375 5.242188 4.613281 C 5.238281 4.621094 5.234375 4.628906 5.230469 4.636719 C 5.226562 4.644531 5.226562 4.65625 5.222656 4.664062 C 5.222656 4.664062 5.21875 4.667969 5.21875 4.671875 C 5.214844 4.691406 5.210938 4.707031 5.210938 4.726562 C 5.210938 4.730469 5.210938 4.734375 5.210938 4.738281 C 5.210938 4.746094 5.210938 4.753906 5.210938 4.761719 C 5.210938 4.769531 5.214844 4.78125 5.214844 4.789062 C 5.214844 4.792969 5.21875 4.796875 5.21875 4.800781 C 5.222656 4.816406 5.230469 4.832031 5.238281 4.847656 C 5.257812 4.890625 5.230469 4.941406 5.191406 4.960938 C 5.144531 4.980469 5.097656 4.953125 5.078125 4.914062 C 4.984375 4.730469 5.058594 4.484375 5.230469 4.375 C 5.394531 4.269531 5.613281 4.28125 5.773438 4.394531 C 5.921875 4.5 6.003906 4.679688 6.050781 4.851562 C 6.089844 4.988281 6.125 5.125 6.152344 5.261719 C 6.160156 5.167969 6.167969 5.070312 6.171875 4.976562 C 6.179688 4.871094 6.183594 4.765625 6.199219 4.660156 C 6.210938 4.554688 6.234375 4.453125 6.273438 4.355469 C 6.316406 4.257812 6.378906 4.171875 6.457031 4.101562 C 6.613281 3.96875 6.828125 3.914062 7.023438 3.976562 C 7.207031 4.039062 7.355469 4.207031 7.378906 4.402344 C 7.386719 4.449219 7.351562 4.492188 7.304688 4.5 Z M 5.34375 4.507812 C 5.34375 4.507812 5.339844 4.511719 5.335938 4.511719 C 5.339844 4.511719 5.34375 4.507812 5.34375 4.507812 Z M 5.660156 4.527344 C 5.660156 4.527344 5.65625 4.523438 5.652344 4.523438 C 5.65625 4.523438 5.65625 4.527344 5.660156 4.527344 Z M 6.203125 6.257812 C 6.203125 6.257812 6.203125 6.257812 6.207031 6.257812 C 6.203125 6.257812 6.203125 6.257812 6.203125 6.257812 Z M 6.132812 6.335938 C 6.128906 6.347656 6.132812 6.34375 6.132812 6.335938 Z M 6.785156 9.757812 C 6.78125 9.757812 6.78125 9.761719 6.785156 9.757812 Z M 6.335938 6.300781 C 6.335938 6.300781 6.332031 6.300781 6.332031 6.296875 C 6.335938 6.300781 6.34375 6.308594 6.335938 6.300781 Z M 6.304688 6.273438 C 6.304688 6.273438 6.300781 6.269531 6.296875 6.269531 C 6.292969 6.265625 6.289062 6.265625 6.289062 6.265625 C 6.28125 6.261719 6.277344 6.257812 6.269531 6.257812 C 6.269531 6.257812 6.269531 6.257812 6.265625 6.257812 C 6.261719 6.253906 6.257812 6.253906 6.253906 6.253906 C 6.25 6.253906 6.246094 6.253906 6.242188 6.253906 C 6.238281 6.253906 6.234375 6.253906 6.230469 6.253906 C 6.226562 6.253906 6.21875 6.253906 6.214844 6.253906 C 6.214844 6.253906 6.210938 6.253906 6.210938 6.257812 C 6.195312 6.261719 6.183594 6.265625 6.167969 6.273438 C 6.167969 6.273438 6.167969 6.273438 6.164062 6.273438 C 6.160156 6.277344 6.15625 6.28125 6.148438 6.285156 C 6.148438 6.285156 6.148438 6.289062 6.144531 6.289062 C 6.144531 6.292969 6.140625 6.296875 6.140625 6.296875 C 6.136719 6.300781 6.136719 6.304688 6.136719 6.308594 C 6.132812 6.316406 6.132812 6.320312 6.132812 6.324219 C 6.132812 6.328125 6.132812 6.332031 6.132812 6.335938 C 6.132812 6.347656 6.132812 6.359375 6.132812 6.371094 C 6.136719 6.375 6.136719 6.378906 6.136719 6.382812 C 6.140625 6.390625 6.140625 6.398438 6.144531 6.40625 C 6.175781 6.542969 6.207031 6.679688 6.234375 6.816406 C 6.289062 7.089844 6.332031 7.371094 6.371094 7.648438 C 6.40625 7.925781 6.4375 8.207031 6.46875 8.484375 C 6.5 8.765625 6.53125 9.046875 6.566406 9.324219 C 6.578125 9.394531 6.589844 9.464844 6.597656 9.535156 C 6.601562 9.566406 6.609375 9.597656 6.613281 9.628906 C 6.617188 9.640625 6.617188 9.652344 6.621094 9.667969 C 6.621094 9.667969 6.621094 9.667969 6.621094 9.671875 C 6.625 9.675781 6.625 9.679688 6.625 9.683594 C 6.632812 9.707031 6.644531 9.726562 6.652344 9.75 C 6.652344 9.75 6.652344 9.75 6.652344 9.753906 C 6.65625 9.757812 6.660156 9.761719 6.664062 9.765625 C 6.664062 9.769531 6.671875 9.773438 6.671875 9.777344 C 6.675781 9.78125 6.683594 9.785156 6.6875 9.789062 C 6.691406 9.789062 6.695312 9.789062 6.699219 9.792969 C 6.699219 9.792969 6.703125 9.792969 6.703125 9.792969 C 6.703125 9.792969 6.710938 9.792969 6.714844 9.792969 C 6.714844 9.792969 6.722656 9.792969 6.722656 9.792969 C 6.722656 9.792969 6.726562 9.792969 6.726562 9.792969 C 6.730469 9.792969 6.734375 9.789062 6.738281 9.789062 C 6.742188 9.785156 6.75 9.785156 6.753906 9.78125 C 6.753906 9.78125 6.757812 9.78125 6.757812 9.777344 C 6.769531 9.773438 6.777344 9.761719 6.785156 9.753906 C 6.789062 9.753906 6.789062 9.75 6.789062 9.75 C 6.796875 9.746094 6.800781 9.738281 6.804688 9.734375 C 6.808594 9.726562 6.8125 9.722656 6.816406 9.71875 C 6.816406 9.714844 6.824219 9.703125 6.824219 9.703125 C 6.824219 9.699219 6.828125 9.695312 6.828125 9.695312 C 6.832031 9.691406 6.835938 9.683594 6.835938 9.675781 C 6.84375 9.664062 6.847656 9.652344 6.851562 9.640625 C 6.851562 9.636719 6.855469 9.632812 6.855469 9.628906 C 6.855469 9.628906 6.855469 9.628906 6.855469 9.625 C 6.855469 9.625 6.855469 9.625 6.855469 9.621094 C 6.859375 9.617188 6.859375 9.613281 6.859375 9.609375 C 6.863281 9.59375 6.867188 9.578125 6.871094 9.5625 C 6.875 9.53125 6.878906 9.5 6.882812 9.46875 C 6.882812 9.453125 6.886719 9.4375 6.886719 9.417969 C 6.886719 9.414062 6.886719 9.40625 6.886719 9.398438 C 6.886719 9.394531 6.886719 9.390625 6.886719 9.390625 C 6.886719 9.324219 6.882812 9.261719 6.878906 9.195312 C 6.859375 8.914062 6.832031 8.632812 6.800781 8.351562 C 6.769531 8.066406 6.734375 7.785156 6.695312 7.5 C 6.6875 7.4375 6.679688 7.371094 6.667969 7.308594 C 6.648438 7.175781 6.625 7.046875 6.59375 6.917969 C 6.59375 6.90625 6.589844 6.898438 6.585938 6.890625 C 6.585938 6.886719 6.585938 6.886719 6.585938 6.882812 C 6.582031 6.867188 6.578125 6.851562 6.574219 6.835938 C 6.566406 6.804688 6.554688 6.773438 6.546875 6.742188 C 6.527344 6.679688 6.503906 6.617188 6.476562 6.558594 C 6.453125 6.5 6.429688 6.445312 6.402344 6.394531 C 6.402344 6.394531 6.398438 6.390625 6.398438 6.390625 C 6.398438 6.386719 6.394531 6.382812 6.394531 6.378906 C 6.386719 6.371094 6.382812 6.359375 6.375 6.351562 C 6.367188 6.34375 6.363281 6.332031 6.355469 6.324219 C 6.347656 6.316406 6.335938 6.304688 6.332031 6.296875 C 6.328125 6.292969 6.320312 6.289062 6.316406 6.285156 C 6.3125 6.28125 6.308594 6.277344 6.304688 6.273438 Z M 6.542969 4.261719 C 6.554688 4.253906 6.546875 4.257812 6.542969 4.261719 Z M 6.542969 4.261719 "/></g></g></svg>