<svg xmlns="http://www.w3.org/2000/svg" xmlns:xlink="http://www.w3.org/1999/xlink" width="40" zoomAndPan="magnify" viewBox="0 0 30 30.000001" height="40" preserveAspectRatio="xMidYMid meet" version="1.2"><defs><clipPath id="7c3e00b43b"><path d="M 14 15 L 26 15 L 26 26.039062 L 14 26.039062 Z M 14 15 "/></clipPath><clipPath id="e0e2d502b0"><path d="M 9 5.714844 L 17 5.714844 L 17 17 L 9 17 Z M 9 5.714844 "/></clipPath><clipPath id="905f7662a2"><path d="M 1.933594 9 L 16 9 L 16 26 L 1.933594 26 Z M 1.933594 9 "/></clipPath><clipPath id="45e4305b1f"><path d="M 17 9 L 28.066406 9 L 28.066406 26 L 17 26 Z M 17 9 "/></clipPath><clipPath id="f151fc3537"><path d="M 7 4 L 10.644531 4 L 10.644531 9 L 7 9 Z M 7 4 "/></clipPath><clipPath id="bf77a0af4c"><path d="M 3.386719 3 L 7 3 L 7 7 L 3.386719 7 Z M 3.386719 3 "/></clipPath><clipPath id="d3a218b55a"><path d="M 4 8 L 7 8 L 7 10.886719 L 4 10.886719 Z M 4 8 "/></clipPath></defs><g id="b982c178cf"><path style=" stroke:none;fill-rule:nonzero;fill:#98e07e;fill-opacity:1;" d="M 27.453125 9.78125 L 27.453125 24.617188 L 25.207031 24.617188 L 25.207031 21.769531 C 25.71875 21.710938 26.144531 21.40625 26.328125 20.9375 C 26.535156 20.429688 26.410156 19.859375 26.003906 19.472656 L 21.492188 15.144531 C 21.183594 14.820312 20.757812 14.65625 20.308594 14.65625 C 19.859375 14.65625 19.429688 14.820312 19.125 15.125 C 19.125 15.125 19.101562 15.144531 14.589844 19.472656 C 14.203125 19.859375 14.0625 20.429688 14.265625 20.9375 C 14.449219 21.40625 14.878906 21.710938 15.386719 21.769531 L 15.386719 24.617188 L 2.609375 24.617188 L 2.609375 9.78125 L 8.261719 9.78125 C 8.261719 9.921875 8.261719 10.042969 8.285156 10.1875 C 8.304688 10.328125 8.304688 10.449219 8.34375 10.59375 C 8.449219 11.203125 8.671875 11.792969 9 12.359375 L 9.242188 12.769531 C 9.835938 13.804688 11.347656 16.363281 11.550781 16.710938 C 11.691406 16.953125 11.898438 17.15625 12.140625 17.300781 C 12.386719 17.441406 12.652344 17.503906 12.957031 17.503906 C 13.550781 17.503906 14.082031 17.199219 14.367188 16.691406 C 14.367188 16.691406 16.816406 12.503906 16.816406 12.503906 C 17.203125 11.851562 17.449219 11.203125 17.570312 10.59375 C 17.59375 10.449219 17.613281 10.328125 17.632812 10.1875 C 17.652344 10.042969 17.652344 9.921875 17.652344 9.78125 Z M 27.453125 9.78125 "/><path style=" stroke:none;fill-rule:nonzero;fill:#2d4356;fill-opacity:1;" d="M 4.078125 13.945312 C 4.078125 14.058594 4.039062 14.15625 3.960938 14.234375 C 3.878906 14.3125 3.785156 14.351562 3.671875 14.351562 C 3.558594 14.351562 3.460938 14.3125 3.382812 14.234375 C 3.300781 14.15625 3.261719 14.058594 3.261719 13.945312 C 3.261719 13.835938 3.300781 13.738281 3.382812 13.660156 C 3.460938 13.578125 3.558594 13.539062 3.671875 13.539062 C 3.785156 13.539062 3.878906 13.578125 3.960938 13.660156 C 4.039062 13.738281 4.078125 13.835938 4.078125 13.945312 Z M 4.078125 13.945312 "/><path style=" stroke:none;fill-rule:nonzero;fill:#2d4356;fill-opacity:1;" d="M 5.40625 14.453125 C 5.40625 14.566406 5.367188 14.664062 5.285156 14.742188 C 5.207031 14.820312 5.109375 14.859375 4.996094 14.859375 C 4.882812 14.859375 4.789062 14.820312 4.707031 14.742188 C 4.628906 14.664062 4.589844 14.566406 4.589844 14.453125 C 4.589844 14.34375 4.628906 14.246094 4.707031 14.167969 C 4.789062 14.085938 4.882812 14.046875 4.996094 14.046875 C 5.109375 14.046875 5.207031 14.085938 5.285156 14.167969 C 5.367188 14.246094 5.40625 14.34375 5.40625 14.453125 Z M 5.40625 14.453125 "/><path style=" stroke:none;fill-rule:nonzero;fill:#2d4356;fill-opacity:1;" d="M 6.734375 14.960938 C 6.734375 15.074219 6.691406 15.171875 6.613281 15.25 C 6.535156 15.328125 6.4375 15.367188 6.324219 15.367188 C 6.210938 15.367188 6.117188 15.328125 6.035156 15.25 C 5.957031 15.171875 5.917969 15.074219 5.917969 14.960938 C 5.917969 14.851562 5.957031 14.753906 6.035156 14.675781 C 6.117188 14.597656 6.210938 14.554688 6.324219 14.554688 C 6.4375 14.554688 6.535156 14.597656 6.613281 14.675781 C 6.691406 14.753906 6.734375 14.851562 6.734375 14.960938 Z M 6.734375 14.960938 "/><path style=" stroke:none;fill-rule:nonzero;fill:#2d4356;fill-opacity:1;" d="M 22.757812 14.25 C 22.757812 14.363281 22.71875 14.460938 22.636719 14.539062 C 22.558594 14.617188 22.460938 14.65625 22.347656 14.65625 C 22.234375 14.65625 22.140625 14.617188 22.058594 14.539062 C 21.980469 14.460938 21.941406 14.363281 21.941406 14.25 C 21.941406 14.140625 21.980469 14.042969 22.058594 13.964844 C 22.140625 13.882812 22.234375 13.84375 22.347656 13.84375 C 22.460938 13.84375 22.558594 13.882812 22.636719 13.964844 C 22.71875 14.042969 22.757812 14.140625 22.757812 14.25 Z M 22.757812 14.25 "/><path style=" stroke:none;fill-rule:nonzero;fill:#2d4356;fill-opacity:1;" d="M 23.777344 12.828125 C 23.777344 12.941406 23.738281 13.035156 23.65625 13.117188 C 23.578125 13.195312 23.480469 13.234375 23.371094 13.234375 C 23.257812 13.234375 23.160156 13.195312 23.082031 13.117188 C 23 13.035156 22.960938 12.941406 22.960938 12.828125 C 22.960938 12.714844 23 12.621094 23.082031 12.542969 C 23.160156 12.460938 23.257812 12.421875 23.371094 12.421875 C 23.480469 12.421875 23.578125 12.460938 23.65625 12.542969 C 23.738281 12.621094 23.777344 12.714844 23.777344 12.828125 Z M 23.777344 12.828125 "/><path style=" stroke:none;fill-rule:nonzero;fill:#2d4356;fill-opacity:1;" d="M 24.796875 11.40625 C 24.796875 11.519531 24.757812 11.613281 24.679688 11.695312 C 24.597656 11.773438 24.503906 11.8125 24.390625 11.8125 C 24.277344 11.8125 24.179688 11.773438 24.101562 11.695312 C 24.023438 11.613281 23.980469 11.519531 23.980469 11.40625 C 23.980469 11.292969 24.023438 11.199219 24.101562 11.117188 C 24.179688 11.039062 24.277344 11 24.390625 11 C 24.503906 11 24.597656 11.039062 24.679688 11.117188 C 24.757812 11.199219 24.796875 11.292969 24.796875 11.40625 Z M 24.796875 11.40625 "/><path style=" stroke:none;fill-rule:nonzero;fill:#2d4356;fill-opacity:1;" d="M 9.285156 23.597656 C 9.285156 23.710938 9.246094 23.808594 9.164062 23.886719 C 9.085938 23.964844 8.988281 24.007812 8.875 24.007812 C 8.761719 24.007812 8.667969 23.964844 8.585938 23.886719 C 8.507812 23.808594 8.46875 23.710938 8.46875 23.597656 C 8.46875 23.488281 8.507812 23.390625 8.585938 23.3125 C 8.667969 23.234375 8.761719 23.191406 8.875 23.191406 C 8.988281 23.191406 9.085938 23.234375 9.164062 23.3125 C 9.246094 23.390625 9.285156 23.488281 9.285156 23.597656 Z M 9.285156 23.597656 "/><path style=" stroke:none;fill-rule:nonzero;fill:#2d4356;fill-opacity:1;" d="M 10.304688 22.378906 C 10.304688 22.492188 10.265625 22.589844 10.183594 22.667969 C 10.105469 22.746094 10.007812 22.785156 9.898438 22.785156 C 9.785156 22.785156 9.6875 22.746094 9.609375 22.667969 C 9.527344 22.589844 9.488281 22.492188 9.488281 22.378906 C 9.488281 22.269531 9.527344 22.171875 9.609375 22.09375 C 9.6875 22.011719 9.785156 21.972656 9.898438 21.972656 C 10.007812 21.972656 10.105469 22.011719 10.183594 22.09375 C 10.265625 22.171875 10.304688 22.269531 10.304688 22.378906 Z M 10.304688 22.378906 "/><path style=" stroke:none;fill-rule:nonzero;fill:#2d4356;fill-opacity:1;" d="M 11.324219 21.160156 C 11.324219 21.273438 11.285156 21.367188 11.207031 21.449219 C 11.125 21.527344 11.03125 21.566406 10.917969 21.566406 C 10.804688 21.566406 10.707031 21.527344 10.628906 21.449219 C 10.550781 21.367188 10.507812 21.273438 10.507812 21.160156 C 10.507812 21.046875 10.550781 20.953125 10.628906 20.875 C 10.707031 20.792969 10.804688 20.753906 10.917969 20.753906 C 11.03125 20.753906 11.125 20.792969 11.207031 20.875 C 11.285156 20.953125 11.324219 21.046875 11.324219 21.160156 Z M 11.324219 21.160156 "/><g clip-rule="nonzero" clip-path="url(#7c3e00b43b)"><path style=" stroke:none;fill-rule:nonzero;fill:#2d4356;fill-opacity:1;" d="M 25.453125 20.0625 L 20.917969 15.714844 C 20.574219 15.390625 20.023438 15.390625 19.695312 15.714844 C 19.695312 15.714844 19.695312 15.714844 15.164062 20.0625 C 15 20.226562 14.960938 20.429688 15.019531 20.632812 C 15.101562 20.835938 15.304688 20.957031 15.550781 20.957031 L 16.226562 20.957031 L 16.226562 24.839844 C 16.226562 25.511719 16.777344 26.039062 17.449219 26.039062 L 23.164062 26.039062 C 23.839844 26.039062 24.390625 25.488281 24.390625 24.839844 L 24.390625 20.957031 L 25.0625 20.957031 C 25.289062 20.957031 25.492188 20.835938 25.574219 20.632812 C 25.65625 20.429688 25.613281 20.207031 25.453125 20.0625 Z M 21.125 25.226562 L 19.492188 25.226562 L 19.492188 22.988281 L 21.125 22.988281 Z M 23.574219 20.144531 C 23.347656 20.144531 23.164062 20.328125 23.164062 20.550781 C 23.164062 20.773438 23.347656 20.957031 23.574219 20.957031 L 23.574219 24.839844 C 23.574219 25.042969 23.390625 25.226562 23.164062 25.226562 L 21.941406 25.226562 L 21.941406 22.910156 C 21.941406 22.503906 21.59375 22.175781 21.183594 22.175781 L 19.429688 22.175781 C 19.019531 22.175781 18.675781 22.503906 18.675781 22.910156 L 18.675781 25.226562 L 17.449219 25.226562 C 17.226562 25.226562 17.042969 25.042969 17.042969 24.839844 L 17.042969 20.957031 C 17.265625 20.957031 17.449219 20.773438 17.449219 20.550781 C 17.449219 20.328125 17.265625 20.144531 17.042969 20.144531 L 16.246094 20.144531 C 17.429688 19.007812 20.226562 16.324219 20.246094 16.304688 C 20.265625 16.285156 20.328125 16.285156 20.347656 16.304688 L 24.371094 20.144531 Z M 23.574219 20.144531 "/></g><path style=" stroke:none;fill-rule:nonzero;fill:#e1ebf4;fill-opacity:1;" d="M 19.492188 22.988281 L 21.125 22.988281 L 21.125 25.226562 L 19.492188 25.226562 Z M 19.492188 22.988281 "/><path style=" stroke:none;fill-rule:nonzero;fill:#ffdb80;fill-opacity:1;" d="M 23.574219 20.144531 L 24.371094 20.144531 L 20.367188 16.304688 C 20.347656 16.285156 20.285156 16.285156 20.265625 16.304688 C 20.246094 16.324219 17.429688 19.007812 16.265625 20.144531 L 17.042969 20.144531 C 17.265625 20.144531 17.449219 20.328125 17.449219 20.550781 C 17.449219 20.773438 17.265625 20.957031 17.042969 20.957031 L 17.042969 24.839844 C 17.042969 25.042969 17.226562 25.226562 17.449219 25.226562 L 18.675781 25.226562 L 18.675781 22.910156 C 18.675781 22.503906 19.019531 22.175781 19.429688 22.175781 L 21.183594 22.175781 C 21.59375 22.175781 21.941406 22.503906 21.941406 22.910156 L 21.941406 25.226562 L 23.164062 25.226562 C 23.390625 25.226562 23.574219 25.042969 23.574219 24.839844 L 23.574219 20.957031 C 23.347656 20.957031 23.164062 20.773438 23.164062 20.550781 C 23.164062 20.328125 23.347656 20.144531 23.574219 20.144531 Z M 20.308594 20.753906 C 19.632812 20.753906 19.082031 20.207031 19.082031 19.535156 C 19.082031 18.863281 19.632812 18.316406 20.308594 18.316406 C 20.980469 18.316406 21.53125 18.863281 21.53125 19.535156 C 21.53125 20.207031 20.980469 20.753906 20.308594 20.753906 Z M 20.308594 20.753906 "/><path style=" stroke:none;fill-rule:nonzero;fill:#2d4356;fill-opacity:1;" d="M 20.308594 18.316406 C 19.632812 18.316406 19.082031 18.863281 19.082031 19.535156 C 19.082031 20.207031 19.632812 20.753906 20.308594 20.753906 C 20.980469 20.753906 21.53125 20.207031 21.53125 19.535156 C 21.53125 18.863281 20.980469 18.316406 20.308594 18.316406 Z M 20.308594 19.941406 C 20.082031 19.941406 19.898438 19.757812 19.898438 19.535156 C 19.898438 19.3125 20.082031 19.128906 20.308594 19.128906 C 20.53125 19.128906 20.714844 19.3125 20.714844 19.535156 C 20.714844 19.757812 20.53125 19.941406 20.308594 19.941406 Z M 20.308594 19.941406 "/><path style=" stroke:none;fill-rule:nonzero;fill:#e1ebf4;fill-opacity:1;" d="M 20.714844 19.535156 C 20.714844 19.648438 20.675781 19.742188 20.597656 19.824219 C 20.515625 19.902344 20.421875 19.941406 20.308594 19.941406 C 20.195312 19.941406 20.097656 19.902344 20.019531 19.824219 C 19.9375 19.742188 19.898438 19.648438 19.898438 19.535156 C 19.898438 19.421875 19.9375 19.328125 20.019531 19.246094 C 20.097656 19.167969 20.195312 19.128906 20.308594 19.128906 C 20.421875 19.128906 20.515625 19.167969 20.597656 19.246094 C 20.675781 19.328125 20.714844 19.421875 20.714844 19.535156 Z M 20.714844 19.535156 "/><g clip-rule="nonzero" clip-path="url(#e0e2d502b0)"><path style=" stroke:none;fill-rule:nonzero;fill:#2d4356;fill-opacity:1;" d="M 12.957031 5.714844 C 10.816406 5.714844 9.082031 7.523438 9.082031 9.761719 C 9.082031 10.511719 9.285156 11.242188 9.691406 11.953125 C 9.816406 12.15625 12.246094 16.304688 12.246094 16.304688 C 12.386719 16.546875 12.652344 16.710938 12.957031 16.710938 C 13.265625 16.710938 13.511719 16.566406 13.671875 16.304688 C 13.671875 16.304688 16.121094 12.117188 16.121094 12.117188 C 16.53125 11.40625 16.835938 10.59375 16.835938 9.78125 C 16.835938 7.523438 15.101562 5.714844 12.957031 5.714844 Z M 15.410156 11.671875 C 15.410156 11.671875 12.957031 15.878906 12.957031 15.878906 C 12.957031 15.878906 10.425781 11.570312 10.40625 11.527344 C 10.058594 10.957031 9.898438 10.347656 9.898438 9.738281 C 9.898438 7.972656 11.265625 6.527344 12.957031 6.527344 C 14.652344 6.527344 16.019531 7.972656 16.019531 9.761719 C 16.019531 10.429688 15.777344 11.101562 15.410156 11.671875 Z M 15.410156 11.671875 "/></g><path style=" stroke:none;fill-rule:nonzero;fill:#fc785e;fill-opacity:1;" d="M 12.957031 6.527344 C 11.265625 6.527344 9.898438 7.972656 9.898438 9.761719 C 9.898438 10.371094 10.058594 10.957031 10.40625 11.546875 C 10.425781 11.570312 12.957031 15.878906 12.957031 15.878906 C 12.957031 15.878906 15.410156 11.691406 15.410156 11.671875 C 15.753906 11.101562 16.019531 10.429688 16.019531 9.738281 C 16.019531 7.972656 14.652344 6.527344 12.957031 6.527344 Z M 12.957031 11 C 12.164062 11 11.53125 10.371094 11.53125 9.578125 C 11.53125 8.785156 12.164062 8.15625 12.957031 8.15625 C 13.753906 8.15625 14.386719 8.785156 14.386719 9.578125 C 14.386719 10.371094 13.753906 11 12.957031 11 Z M 12.957031 11 "/><path style=" stroke:none;fill-rule:nonzero;fill:#2d4356;fill-opacity:1;" d="M 12.957031 8.15625 C 12.164062 8.15625 11.53125 8.785156 11.53125 9.578125 C 11.53125 10.371094 12.164062 11 12.957031 11 C 13.753906 11 14.386719 10.371094 14.386719 9.578125 C 14.386719 8.785156 13.753906 8.15625 12.957031 8.15625 Z M 12.957031 10.1875 C 12.613281 10.1875 12.347656 9.902344 12.347656 9.578125 C 12.347656 9.230469 12.613281 8.96875 12.957031 8.96875 C 13.304688 8.96875 13.570312 9.230469 13.570312 9.578125 C 13.570312 9.902344 13.304688 10.1875 12.957031 10.1875 Z M 12.957031 10.1875 "/><path style=" stroke:none;fill-rule:nonzero;fill:#e1ebf4;fill-opacity:1;" d="M 13.570312 9.578125 C 13.570312 9.746094 13.511719 9.890625 13.390625 10.007812 C 13.273438 10.128906 13.128906 10.1875 12.957031 10.1875 C 12.789062 10.1875 12.644531 10.128906 12.527344 10.007812 C 12.40625 9.890625 12.347656 9.746094 12.347656 9.578125 C 12.347656 9.410156 12.40625 9.265625 12.527344 9.144531 C 12.644531 9.027344 12.789062 8.96875 12.957031 8.96875 C 13.128906 8.96875 13.273438 9.027344 13.390625 9.144531 C 13.511719 9.265625 13.570312 9.410156 13.570312 9.578125 Z M 13.570312 9.578125 "/><path style=" stroke:none;fill-rule:nonzero;fill:#2d4356;fill-opacity:1;" d="M 16.203125 13.558594 L 15.796875 14.273438 L 18.878906 15.390625 C 19.042969 15.226562 19.101562 15.164062 19.125 15.144531 C 19.285156 15.003906 19.449219 14.882812 19.652344 14.800781 Z M 16.203125 13.558594 "/><g clip-rule="nonzero" clip-path="url(#905f7662a2)"><path style=" stroke:none;fill-rule:nonzero;fill:#2d4356;fill-opacity:1;" d="M 15.410156 24.414062 L 3.160156 24.414062 C 2.9375 24.414062 2.753906 24.230469 2.753906 24.007812 L 2.753906 22.117188 L 6.222656 17.96875 L 14.386719 21.261719 C 14.347656 21.203125 14.304688 21.121094 14.265625 21.039062 C 14.164062 20.796875 14.144531 20.550781 14.183594 20.308594 L 6.773438 17.300781 L 9.792969 13.703125 C 9.609375 13.398438 9.46875 13.152344 9.367188 12.949219 L 2.753906 20.855469 L 2.753906 10.59375 C 2.753906 10.371094 2.9375 10.1875 3.160156 10.1875 L 8.285156 10.1875 C 8.261719 10.042969 8.261719 9.902344 8.261719 9.761719 C 8.261719 9.636719 8.261719 9.496094 8.285156 9.375 L 3.160156 9.375 C 2.488281 9.375 1.933594 9.921875 1.933594 10.59375 L 1.933594 24.007812 C 1.933594 24.675781 2.488281 25.226562 3.160156 25.226562 L 15.449219 25.226562 C 15.429688 25.101562 15.410156 24.960938 15.410156 24.839844 Z M 15.410156 24.414062 "/></g><g clip-rule="nonzero" clip-path="url(#45e4305b1f)"><path style=" stroke:none;fill-rule:nonzero;fill:#2d4356;fill-opacity:1;" d="M 26.839844 9.375 L 17.632812 9.375 C 17.632812 9.496094 17.652344 9.617188 17.652344 9.761719 C 17.652344 9.902344 17.652344 10.042969 17.632812 10.1875 L 26.839844 10.1875 C 27.0625 10.1875 27.246094 10.371094 27.246094 10.59375 L 27.246094 17.542969 L 22.023438 15.671875 L 23.429688 17.035156 L 27.246094 18.417969 L 27.246094 24.007812 C 27.246094 24.230469 27.0625 24.414062 26.839844 24.414062 L 25.207031 24.414062 L 25.207031 24.839844 C 25.207031 24.980469 25.1875 25.101562 25.164062 25.226562 L 26.839844 25.226562 C 27.511719 25.226562 28.066406 24.675781 28.066406 24.007812 L 28.066406 10.59375 C 28.066406 9.921875 27.511719 9.375 26.839844 9.375 Z M 26.839844 9.375 "/></g><path style=" stroke:none;fill-rule:nonzero;fill:#cbe0c3;fill-opacity:0.6;" d="M 8.34375 10.59375 L 3.160156 10.59375 C 2.9375 10.59375 2.753906 10.777344 2.753906 11 L 2.753906 10.59375 C 2.753906 10.371094 2.9375 10.1875 3.160156 10.1875 L 8.285156 10.1875 C 8.304688 10.328125 8.304688 10.449219 8.34375 10.59375 Z M 8.34375 10.59375 "/><path style=" stroke:none;fill-rule:nonzero;fill:#cbe0c3;fill-opacity:0.6;" d="M 27.246094 10.59375 L 27.246094 11 C 27.246094 10.777344 27.0625 10.59375 26.839844 10.59375 L 17.570312 10.59375 C 17.59375 10.449219 17.613281 10.328125 17.632812 10.1875 L 26.839844 10.1875 C 27.0625 10.1875 27.246094 10.371094 27.246094 10.59375 Z M 27.246094 10.59375 "/><path style=" stroke:none;fill-rule:nonzero;fill:#f9edd2;fill-opacity:0.5;" d="M 24.371094 20.144531 L 23.941406 20.144531 L 20.367188 16.710938 C 20.347656 16.691406 20.285156 16.691406 20.265625 16.710938 C 20.246094 16.730469 18 18.882812 16.675781 20.144531 L 16.246094 20.144531 C 17.429688 19.007812 20.226562 16.324219 20.246094 16.304688 C 20.265625 16.285156 20.328125 16.285156 20.347656 16.304688 Z M 24.371094 20.144531 "/><path style=" stroke:none;fill-rule:nonzero;fill:#9fa5aa;fill-opacity:0.5;" d="M 19.492188 24.820312 L 21.125 24.820312 L 21.125 25.226562 L 19.492188 25.226562 Z M 19.492188 24.820312 "/><path style=" stroke:none;fill-rule:nonzero;fill:#ad9359;fill-opacity:0.45;" d="M 23.574219 24.433594 L 23.574219 24.839844 C 23.574219 25.0625 23.390625 25.226562 23.164062 25.226562 L 21.941406 25.226562 L 21.941406 24.820312 L 23.164062 24.820312 C 23.390625 24.820312 23.574219 24.65625 23.574219 24.433594 Z M 23.574219 24.433594 "/><path style=" stroke:none;fill-rule:nonzero;fill:#ad9359;fill-opacity:0.45;" d="M 18.675781 24.820312 L 18.675781 25.226562 L 17.449219 25.226562 C 17.226562 25.226562 17.042969 25.0625 17.042969 24.839844 L 17.042969 24.433594 C 17.042969 24.65625 17.226562 24.820312 17.449219 24.820312 Z M 18.675781 24.820312 "/><path style=" stroke:none;fill-rule:nonzero;fill:#f9dbd7;fill-opacity:0.3;" d="M 16.019531 9.761719 C 16.019531 9.820312 16.019531 9.882812 16.019531 9.964844 C 15.917969 8.277344 14.589844 6.957031 12.957031 6.957031 C 11.324219 6.957031 10 8.296875 9.898438 9.984375 C 9.898438 9.921875 9.898438 9.863281 9.898438 9.78125 C 9.898438 7.972656 11.265625 6.527344 12.957031 6.527344 C 14.652344 6.527344 16.019531 7.972656 16.019531 9.761719 Z M 16.019531 9.761719 "/><path style=" stroke:none;fill-rule:nonzero;fill:#a54b3f;fill-opacity:0.5;" d="M 16.019531 9.761719 C 16.019531 10.429688 15.777344 11.121094 15.410156 11.691406 C 15.410156 11.691406 12.957031 15.898438 12.957031 15.898438 C 12.957031 15.898438 10.425781 11.570312 10.40625 11.546875 C 10.058594 10.980469 9.898438 10.371094 9.898438 9.761719 C 9.898438 9.699219 9.898438 9.617188 9.898438 9.558594 C 9.9375 10.085938 10.101562 10.632812 10.40625 11.140625 C 10.425781 11.164062 12.957031 15.46875 12.957031 15.46875 C 12.957031 15.46875 15.410156 11.285156 15.410156 11.265625 C 15.734375 10.753906 15.960938 10.144531 16 9.535156 C 16.019531 9.617188 16.019531 9.679688 16.019531 9.761719 Z M 16.019531 9.761719 "/><path style=" stroke:none;fill-rule:nonzero;fill:#528440;fill-opacity:0.3;" d="M 15.410156 24.007812 L 15.410156 24.414062 L 3.160156 24.414062 C 2.9375 24.414062 2.753906 24.230469 2.753906 24.007812 L 2.753906 23.597656 C 2.753906 23.824219 2.9375 24.007812 3.160156 24.007812 Z M 15.410156 24.007812 "/><path style=" stroke:none;fill-rule:nonzero;fill:#528440;fill-opacity:0.3;" d="M 27.246094 23.597656 L 27.246094 24.007812 C 27.246094 24.230469 27.0625 24.414062 26.839844 24.414062 L 25.207031 24.414062 L 25.207031 24.007812 L 26.839844 24.007812 C 27.0625 24.007812 27.246094 23.824219 27.246094 23.597656 Z M 27.246094 23.597656 "/><g clip-rule="nonzero" clip-path="url(#f151fc3537)"><path style=" stroke:none;fill-rule:nonzero;fill:#c9edf7;fill-opacity:1;" d="M 9.371094 5.347656 C 9.527344 5.269531 9.671875 5.152344 9.832031 5.125 C 10.339844 5.035156 10.636719 5.292969 10.640625 5.804688 C 10.644531 6.351562 10.441406 6.816406 10.070312 7.222656 C 9.722656 7.609375 9.289062 7.871094 8.839844 8.105469 C 8.714844 8.171875 8.617188 8.140625 8.488281 8.066406 C 8.238281 7.917969 8.179688 7.664062 8.089844 7.4375 C 7.839844 6.808594 7.679688 6.160156 7.789062 5.476562 C 7.84375 5.132812 7.945312 4.804688 8.21875 4.558594 C 8.421875 4.371094 8.65625 4.292969 8.917969 4.402344 C 9.144531 4.5 9.277344 4.691406 9.3125 4.9375 C 9.332031 5.074219 9.351562 5.210938 9.371094 5.347656 Z M 8.570312 7.753906 C 8.617188 7.730469 8.660156 7.703125 8.703125 7.679688 C 9.074219 7.488281 9.429688 7.277344 9.71875 6.96875 C 9.957031 6.710938 10.132812 6.421875 10.183594 6.078125 C 10.207031 5.933594 10.179688 5.78125 10.160156 5.636719 C 10.148438 5.527344 10.058594 5.5 9.972656 5.535156 C 9.863281 5.578125 9.75 5.625 9.667969 5.699219 C 9.441406 5.894531 9.285156 6.128906 9.226562 6.429688 C 9.203125 6.5625 9.089844 6.640625 8.976562 6.621094 C 8.835938 6.601562 8.753906 6.503906 8.773438 6.355469 C 8.785156 6.246094 8.8125 6.136719 8.835938 6.027344 C 8.910156 5.683594 8.9375 5.335938 8.867188 4.992188 C 8.855469 4.917969 8.78125 4.828125 8.710938 4.800781 C 8.664062 4.777344 8.550781 4.828125 8.511719 4.878906 C 8.417969 4.996094 8.328125 5.128906 8.28125 5.269531 C 8.085938 5.863281 8.175781 6.453125 8.335938 7.039062 C 8.402344 7.273438 8.488281 7.503906 8.570312 7.753906 Z M 8.570312 7.753906 "/></g><g clip-rule="nonzero" clip-path="url(#bf77a0af4c)"><path style=" stroke:none;fill-rule:nonzero;fill:#fed7fe;fill-opacity:1;" d="M 4.828125 3.585938 C 4.863281 3.507812 4.894531 3.4375 4.929688 3.363281 C 5.113281 2.96875 5.554688 2.90625 5.898438 3.179688 C 6.238281 3.453125 6.34375 3.832031 6.382812 4.238281 C 6.417969 4.625 6.355469 4.996094 6.164062 5.332031 C 6 5.625 5.816406 5.90625 5.636719 6.191406 C 5.605469 6.242188 5.558594 6.28125 5.515625 6.324219 C 5.410156 6.417969 5.296875 6.4375 5.171875 6.355469 C 4.570312 5.953125 3.988281 5.527344 3.6875 4.847656 C 3.511719 4.453125 3.386719 4.03125 3.535156 3.589844 C 3.710938 3.074219 4.207031 3.027344 4.574219 3.320312 C 4.667969 3.398438 4.742188 3.496094 4.828125 3.585938 Z M 5.199219 5.996094 C 5.246094 5.945312 5.285156 5.910156 5.3125 5.867188 C 5.726562 5.339844 6.050781 4.785156 5.910156 4.074219 C 5.867188 3.859375 5.789062 3.664062 5.617188 3.519531 C 5.464844 3.394531 5.382812 3.417969 5.300781 3.589844 C 5.171875 3.875 5.167969 4.164062 5.246094 4.460938 C 5.292969 4.632812 5.242188 4.769531 5.109375 4.8125 C 4.96875 4.859375 4.851562 4.78125 4.785156 4.605469 C 4.726562 4.441406 4.671875 4.277344 4.59375 4.125 C 4.523438 3.980469 4.441406 3.832031 4.339844 3.710938 C 4.273438 3.640625 4.140625 3.5625 4.066406 3.585938 C 3.996094 3.605469 3.929688 3.746094 3.917969 3.839844 C 3.863281 4.191406 3.96875 4.523438 4.125 4.832031 C 4.371094 5.3125 4.785156 5.648438 5.199219 5.996094 Z M 5.199219 5.996094 "/></g><g clip-rule="nonzero" clip-path="url(#d3a218b55a)"><path style=" stroke:none;fill-rule:nonzero;fill:#c9edf7;fill-opacity:1;" d="M 5.617188 8.4375 C 5.726562 8.34375 5.820312 8.234375 5.941406 8.171875 C 6.304688 7.988281 6.660156 8.285156 6.789062 8.578125 C 7.015625 9.09375 6.886719 9.5625 6.578125 9.996094 C 6.375 10.285156 6.140625 10.546875 5.835938 10.734375 C 5.59375 10.886719 5.519531 10.878906 5.324219 10.679688 C 4.917969 10.261719 4.59375 9.792969 4.445312 9.226562 C 4.375 8.957031 4.367188 8.683594 4.460938 8.414062 C 4.59375 8.042969 5.019531 7.914062 5.335938 8.15625 C 5.445312 8.238281 5.53125 8.347656 5.617188 8.4375 Z M 4.828125 9.332031 C 4.839844 9.328125 4.851562 9.328125 4.863281 9.328125 C 5 9.703125 5.214844 10.035156 5.460938 10.347656 C 5.519531 10.417969 5.566406 10.386719 5.617188 10.351562 C 5.957031 10.125 6.222656 9.832031 6.382812 9.460938 C 6.5 9.191406 6.523438 8.914062 6.335938 8.664062 C 6.292969 8.609375 6.207031 8.550781 6.140625 8.554688 C 6.09375 8.558594 6.027344 8.644531 6.003906 8.707031 C 5.957031 8.824219 5.929688 8.949219 5.910156 9.070312 C 5.890625 9.171875 5.894531 9.273438 5.882812 9.375 C 5.867188 9.484375 5.8125 9.578125 5.695312 9.59375 C 5.570312 9.609375 5.492188 9.539062 5.460938 9.417969 C 5.445312 9.359375 5.4375 9.300781 5.417969 9.242188 C 5.347656 9.023438 5.28125 8.800781 5.199219 8.589844 C 5.160156 8.492188 5.0625 8.398438 4.957031 8.441406 C 4.882812 8.472656 4.8125 8.589844 4.808594 8.671875 C 4.796875 8.890625 4.816406 9.109375 4.828125 9.332031 Z M 4.828125 9.332031 "/></g></g></svg>