<svg xmlns="http://www.w3.org/2000/svg" xmlns:xlink="http://www.w3.org/1999/xlink" width="40" zoomAndPan="magnify" viewBox="0 0 30 30.000001" height="40" preserveAspectRatio="xMidYMid meet" version="1.2"><defs><clipPath id="3653054418"><path d="M 2.113281 2.902344 L 28.242188 2.902344 L 28.242188 26.128906 L 2.113281 26.128906 Z M 2.113281 2.902344 "/></clipPath><clipPath id="04f99143e6"><path d="M 2.113281 22 L 8 22 L 8 26.128906 L 2.113281 26.128906 Z M 2.113281 22 "/></clipPath><clipPath id="0f8f9d035a"><path d="M 18 22 L 25 22 L 25 26.128906 L 18 26.128906 Z M 18 22 "/></clipPath><clipPath id="2d9bba7596"><path d="M 9 11 L 19 11 L 19 26.128906 L 9 26.128906 Z M 9 11 "/></clipPath><clipPath id="8f9cc9b75c"><path d="M 17 17 L 19 17 L 19 26.128906 L 17 26.128906 Z M 17 17 "/></clipPath><clipPath id="04b0564c2b"><path d="M 9 17 L 11 17 L 11 26.128906 L 9 26.128906 Z M 9 17 "/></clipPath><clipPath id="99a1ede285"><path d="M 7 4 L 10.644531 4 L 10.644531 9 L 7 9 Z M 7 4 "/></clipPath><clipPath id="39ace0e441"><path d="M 3.386719 3 L 7 3 L 7 7 L 3.386719 7 Z M 3.386719 3 "/></clipPath><clipPath id="412492c86b"><path d="M 4 8 L 7 8 L 7 10.886719 L 4 10.886719 Z M 4 8 "/></clipPath></defs><g id="88fe45f95d"><g clip-rule="nonzero" clip-path="url(#3653054418)"><path style=" stroke:none;fill-rule:nonzero;fill:#b5bff1;fill-opacity:1;" d="M 28.242188 15.523438 C 28.242188 19.910156 25.972656 23.777344 22.527344 26.035156 L 8.371094 26.035156 C 4.925781 23.777344 2.652344 19.914062 2.652344 15.523438 C 2.652344 8.554688 8.382812 2.90625 15.449219 2.90625 C 22.515625 2.90625 28.242188 8.554688 28.242188 15.523438 Z M 28.242188 15.523438 "/></g><g clip-rule="nonzero" clip-path="url(#04f99143e6)"><path style=" stroke:none;fill-rule:nonzero;fill:#ffffff;fill-opacity:1;" d="M 6.238281 22.761719 L 5.355469 24.722656 L 3.859375 25.164062 L 2.203125 25.742188 L 2.203125 26.035156 L 3.808594 25.785156 L 6.050781 25.921875 C 6.300781 25.9375 6.535156 25.800781 6.648438 25.582031 L 7.890625 23.136719 Z M 6.238281 22.761719 "/><path style=" stroke:none;fill-rule:nonzero;fill:#272547;fill-opacity:1;" d="M 2.203125 26.125 C 2.183594 26.125 2.164062 26.117188 2.144531 26.105469 C 2.125 26.085938 2.113281 26.0625 2.113281 26.035156 L 2.113281 25.742188 C 2.113281 25.707031 2.140625 25.671875 2.175781 25.660156 L 3.832031 25.082031 C 3.832031 25.082031 3.832031 25.082031 3.835938 25.082031 L 5.292969 24.652344 L 6.15625 22.726562 C 6.171875 22.6875 6.214844 22.664062 6.257812 22.675781 L 7.914062 23.050781 C 7.9375 23.054688 7.960938 23.074219 7.972656 23.097656 C 7.984375 23.125 7.984375 23.152344 7.972656 23.175781 L 6.730469 25.621094 C 6.597656 25.875 6.332031 26.027344 6.042969 26.007812 L 3.8125 25.871094 L 2.21875 26.125 C 2.214844 26.125 2.210938 26.125 2.203125 26.125 Z M 2.292969 25.804688 L 2.292969 25.933594 L 3.792969 25.695312 C 3.800781 25.695312 3.808594 25.695312 3.816406 25.695312 L 6.054688 25.832031 C 6.269531 25.84375 6.472656 25.730469 6.570312 25.539062 L 7.761719 23.195312 L 6.289062 22.863281 L 5.4375 24.757812 C 5.429688 24.78125 5.40625 24.800781 5.382812 24.808594 L 3.886719 25.25 Z M 2.292969 25.804688 "/></g><path style=" stroke:none;fill-rule:nonzero;fill:#ffffff;fill-opacity:1;" d="M 10.730469 13.238281 L 9.460938 13.8125 L 5.503906 23.964844 L 7.375 24.667969 L 10.730469 19.070312 Z M 10.730469 13.238281 "/><path style=" stroke:none;fill-rule:nonzero;fill:#272547;fill-opacity:1;" d="M 7.375 24.753906 C 7.367188 24.753906 7.355469 24.753906 7.34375 24.75 L 5.472656 24.046875 C 5.449219 24.039062 5.429688 24.019531 5.421875 24 C 5.410156 23.976562 5.410156 23.953125 5.417969 23.933594 L 9.378906 13.78125 C 9.386719 13.757812 9.402344 13.742188 9.425781 13.730469 L 10.691406 13.160156 C 10.71875 13.144531 10.75 13.148438 10.777344 13.164062 C 10.804688 13.179688 10.820312 13.210938 10.820312 13.238281 L 10.820312 19.070312 C 10.820312 19.085938 10.816406 19.101562 10.804688 19.113281 L 7.453125 24.710938 C 7.4375 24.738281 7.40625 24.753906 7.375 24.753906 Z M 5.617188 23.914062 L 7.339844 24.558594 L 10.640625 19.046875 L 10.640625 13.378906 L 9.53125 13.878906 Z M 5.617188 23.914062 "/><path style=" stroke:none;fill-rule:nonzero;fill:#272547;fill-opacity:1;" d="M 4.195312 25.824219 L 4.019531 25.78125 L 4.113281 25.429688 C 4.121094 25.398438 4.148438 25.371094 4.183594 25.367188 L 5.550781 25.136719 L 5.582031 25.3125 L 4.273438 25.53125 Z M 4.195312 25.824219 "/><g clip-rule="nonzero" clip-path="url(#0f8f9d035a)"><path style=" stroke:none;fill-rule:nonzero;fill:#ffffff;fill-opacity:1;" d="M 20.34375 22.878906 L 21.191406 24.769531 L 22.632812 25.195312 L 24.226562 25.753906 L 24.226562 26.035156 L 22.679688 25.792969 L 20.523438 25.925781 C 20.28125 25.941406 20.054688 25.8125 19.945312 25.597656 L 18.746094 23.242188 Z M 20.34375 22.878906 "/><path style=" stroke:none;fill-rule:nonzero;fill:#272547;fill-opacity:1;" d="M 24.226562 26.125 C 24.222656 26.125 24.21875 26.125 24.214844 26.125 L 22.675781 25.882812 L 20.527344 26.011719 C 20.25 26.03125 19.988281 25.882812 19.863281 25.636719 L 18.667969 23.28125 C 18.652344 23.257812 18.652344 23.226562 18.664062 23.203125 C 18.675781 23.179688 18.699219 23.160156 18.726562 23.15625 L 20.320312 22.792969 C 20.363281 22.785156 20.40625 22.804688 20.425781 22.84375 L 21.253906 24.699219 L 22.65625 25.113281 C 22.660156 25.113281 22.660156 25.113281 22.660156 25.113281 L 24.257812 25.671875 C 24.292969 25.683594 24.316406 25.714844 24.316406 25.753906 L 24.316406 26.035156 C 24.316406 26.0625 24.304688 26.085938 24.285156 26.105469 C 24.269531 26.117188 24.25 26.125 24.226562 26.125 Z M 22.679688 25.703125 C 22.6875 25.703125 22.691406 25.703125 22.695312 25.707031 L 24.136719 25.933594 L 24.136719 25.816406 L 22.605469 25.28125 L 21.164062 24.855469 C 21.140625 24.847656 21.117188 24.832031 21.109375 24.808594 L 20.289062 22.980469 L 18.878906 23.300781 L 20.023438 25.558594 C 20.117188 25.738281 20.308594 25.847656 20.515625 25.835938 L 22.675781 25.703125 C 22.675781 25.703125 22.679688 25.703125 22.679688 25.703125 Z M 22.679688 25.703125 "/></g><path style=" stroke:none;fill-rule:nonzero;fill:#272547;fill-opacity:1;" d="M 22.308594 25.832031 L 22.234375 25.550781 L 20.972656 25.34375 L 21.003906 25.167969 L 22.320312 25.386719 C 22.355469 25.394531 22.382812 25.417969 22.390625 25.453125 L 22.480469 25.789062 Z M 22.308594 25.832031 "/><path style=" stroke:none;fill-rule:nonzero;fill:#ffffff;fill-opacity:1;" d="M 17.1875 13.621094 L 18.628906 14.417969 L 21.113281 24.121094 L 19.050781 24.519531 L 16.871094 19.207031 Z M 17.1875 13.621094 "/><path style=" stroke:none;fill-rule:nonzero;fill:#272547;fill-opacity:1;" d="M 19.050781 24.605469 C 19.015625 24.605469 18.984375 24.585938 18.96875 24.550781 L 16.789062 19.242188 C 16.78125 19.230469 16.78125 19.21875 16.78125 19.203125 L 17.097656 13.617188 C 17.101562 13.585938 17.117188 13.558594 17.144531 13.542969 C 17.171875 13.527344 17.203125 13.527344 17.230469 13.542969 L 18.675781 14.34375 C 18.695312 14.355469 18.710938 14.375 18.71875 14.398438 L 21.199219 24.097656 C 21.203125 24.121094 21.199219 24.144531 21.1875 24.167969 C 21.175781 24.1875 21.152344 24.203125 21.128906 24.207031 L 19.070312 24.605469 C 19.0625 24.605469 19.058594 24.605469 19.050781 24.605469 Z M 16.960938 19.195312 L 19.109375 24.417969 L 21 24.050781 L 18.554688 14.476562 L 17.269531 13.765625 Z M 16.960938 19.195312 "/><g clip-rule="nonzero" clip-path="url(#2d9bba7596)"><path style=" stroke:none;fill-rule:nonzero;fill:#ffffff;fill-opacity:1;" d="M 9.671875 26.035156 L 10.105469 13.519531 L 12.523438 12.234375 L 13.191406 11.574219 L 15.039062 11.765625 L 15.921875 12.613281 L 17.894531 14.011719 L 18.648438 26.035156 Z M 9.671875 26.035156 "/></g><path style=" stroke:none;fill-rule:nonzero;fill:#272547;fill-opacity:1;" d="M 17.980469 14.160156 L 15.867188 12.6875 C 15.863281 12.683594 15.859375 12.679688 15.859375 12.679688 L 15 11.847656 L 13.226562 11.664062 L 12.585938 12.296875 C 12.582031 12.300781 12.574219 12.308594 12.566406 12.3125 L 10.027344 13.652344 L 9.945312 13.496094 L 12.46875 12.160156 L 13.128906 11.511719 C 13.148438 11.492188 13.175781 11.484375 13.203125 11.484375 L 15.050781 11.675781 C 15.070312 11.679688 15.089844 11.6875 15.101562 11.703125 L 15.976562 12.546875 L 18.082031 14.015625 Z M 17.980469 14.160156 "/><g clip-rule="nonzero" clip-path="url(#8f9cc9b75c)"><path style=" stroke:none;fill-rule:nonzero;fill:#272547;fill-opacity:1;" d="M 17.996094 17.074219 L 18.175781 17.066406 L 18.738281 26.03125 L 18.558594 26.042969 Z M 17.996094 17.074219 "/></g><g clip-rule="nonzero" clip-path="url(#04b0564c2b)"><path style=" stroke:none;fill-rule:nonzero;fill:#272547;fill-opacity:1;" d="M 9.585938 26.035156 L 9.890625 17.132812 L 10.070312 17.140625 L 9.761719 26.039062 Z M 9.585938 26.035156 "/></g><path style=" stroke:none;fill-rule:nonzero;fill:#ffffff;fill-opacity:1;" d="M 13.351562 10.308594 L 12.753906 12.371094 L 13.800781 13.734375 L 14.300781 16.050781 L 14.792969 13.777344 L 15.578125 12.761719 L 15.902344 10.929688 Z M 13.351562 10.308594 "/><path style=" stroke:none;fill-rule:nonzero;fill:#272547;fill-opacity:1;" d="M 14.300781 16.140625 C 14.257812 16.140625 14.222656 16.109375 14.214844 16.070312 L 13.714844 13.773438 L 12.679688 12.425781 C 12.664062 12.402344 12.660156 12.375 12.667969 12.347656 L 13.265625 10.28125 C 13.277344 10.238281 13.324219 10.210938 13.371094 10.222656 L 15.925781 10.84375 C 15.96875 10.855469 16 10.902344 15.992188 10.945312 L 15.664062 12.777344 C 15.664062 12.792969 15.65625 12.804688 15.648438 12.816406 L 14.878906 13.816406 L 14.390625 16.070312 C 14.378906 16.109375 14.34375 16.140625 14.300781 16.140625 Z M 12.851562 12.351562 L 13.871094 13.679688 C 13.878906 13.691406 13.886719 13.703125 13.886719 13.714844 L 14.300781 15.628906 L 14.707031 13.757812 C 14.710938 13.746094 14.714844 13.734375 14.722656 13.722656 L 15.492188 12.726562 L 15.800781 10.996094 L 13.414062 10.414062 Z M 12.851562 12.351562 "/><path style=" stroke:none;fill-rule:nonzero;fill:#272547;fill-opacity:1;" d="M 13.804688 19.386719 L 14.328125 19.386719 L 14.328125 19.5625 L 13.804688 19.5625 Z M 13.804688 19.386719 "/><path style=" stroke:none;fill-rule:nonzero;fill:#272547;fill-opacity:1;" d="M 13.804688 22.132812 L 14.328125 22.132812 L 14.328125 22.308594 L 13.804688 22.308594 Z M 13.804688 22.132812 "/><path style=" stroke:none;fill-rule:nonzero;fill:#ffffff;fill-opacity:1;" d="M 13.328125 8.871094 C 13.328125 9.09375 13.273438 9.285156 13.167969 9.441406 C 13.0625 9.597656 12.933594 9.675781 12.785156 9.675781 C 12.632812 9.675781 12.503906 9.597656 12.398438 9.441406 C 12.292969 9.285156 12.242188 9.09375 12.242188 8.871094 C 12.242188 8.648438 12.292969 8.460938 12.398438 8.300781 C 12.503906 8.144531 12.632812 8.066406 12.785156 8.066406 C 12.933594 8.066406 13.0625 8.144531 13.167969 8.300781 C 13.273438 8.460938 13.328125 8.648438 13.328125 8.871094 Z M 13.328125 8.871094 "/><path style=" stroke:none;fill-rule:nonzero;fill:#272547;fill-opacity:1;" d="M 12.785156 9.765625 C 12.429688 9.765625 12.152344 9.371094 12.152344 8.871094 C 12.152344 8.371094 12.429688 7.976562 12.785156 7.976562 C 13.136719 7.976562 13.414062 8.371094 13.414062 8.871094 C 13.414062 9.371094 13.136719 9.765625 12.785156 9.765625 Z M 12.785156 8.15625 C 12.539062 8.15625 12.328125 8.484375 12.328125 8.871094 C 12.328125 9.261719 12.539062 9.589844 12.785156 9.589844 C 13.027344 9.589844 13.238281 9.261719 13.238281 8.871094 C 13.238281 8.484375 13.027344 8.15625 12.785156 8.15625 Z M 12.785156 8.15625 "/><path style=" stroke:none;fill-rule:nonzero;fill:#ffffff;fill-opacity:1;" d="M 17.257812 8.898438 C 17.402344 8.933594 17.507812 9.039062 17.570312 9.21875 C 17.636719 9.394531 17.640625 9.59375 17.582031 9.808594 C 17.527344 10.023438 17.429688 10.195312 17.289062 10.324219 C 17.144531 10.449219 17 10.496094 16.855469 10.457031 C 16.710938 10.421875 16.605469 10.3125 16.542969 10.136719 C 16.480469 9.957031 16.476562 9.761719 16.53125 9.546875 C 16.585938 9.328125 16.683594 9.160156 16.828125 9.03125 C 16.96875 8.90625 17.113281 8.859375 17.257812 8.898438 Z M 17.257812 8.898438 "/><path style=" stroke:none;fill-rule:nonzero;fill:#272547;fill-opacity:1;" d="M 16.949219 10.558594 C 16.910156 10.558594 16.871094 10.554688 16.835938 10.542969 C 16.492188 10.457031 16.320312 10.007812 16.445312 9.523438 C 16.570312 9.039062 16.9375 8.726562 17.28125 8.8125 C 17.625 8.898438 17.796875 9.34375 17.671875 9.832031 C 17.558594 10.261719 17.257812 10.558594 16.949219 10.558594 Z M 17.167969 8.972656 C 16.945312 8.972656 16.707031 9.226562 16.617188 9.566406 C 16.519531 9.945312 16.640625 10.3125 16.878906 10.371094 C 17.117188 10.433594 17.398438 10.164062 17.496094 9.785156 C 17.59375 9.410156 17.472656 9.042969 17.234375 8.980469 C 17.214844 8.976562 17.191406 8.972656 17.167969 8.972656 Z M 17.167969 8.972656 "/><path style=" stroke:none;fill-rule:nonzero;fill:#ffffff;fill-opacity:1;" d="M 13.199219 7.589844 L 12.699219 9.9375 C 12.621094 10.300781 12.699219 10.679688 12.914062 10.980469 L 13.984375 12.480469 L 14.976562 12.621094 L 16.339844 11.59375 C 16.585938 11.40625 16.761719 11.144531 16.835938 10.847656 L 17.554688 7.953125 C 17.554688 7.953125 17.882812 6.492188 15.796875 6.035156 C 13.710938 5.578125 13.199219 7.589844 13.199219 7.589844 Z M 13.199219 7.589844 "/><path style=" stroke:none;fill-rule:nonzero;fill:#272547;fill-opacity:1;" d="M 14.976562 12.707031 C 14.972656 12.707031 14.964844 12.707031 14.960938 12.707031 L 13.972656 12.566406 C 13.945312 12.5625 13.925781 12.550781 13.910156 12.53125 L 12.839844 11.03125 C 12.613281 10.710938 12.527344 10.304688 12.609375 9.921875 L 13.113281 7.574219 C 13.113281 7.570312 13.113281 7.570312 13.113281 7.570312 C 13.117188 7.546875 13.25 7.042969 13.648438 6.585938 C 14.019531 6.160156 14.695312 5.703125 15.816406 5.949219 C 16.578125 6.117188 17.117188 6.433594 17.414062 6.894531 C 17.757812 7.429688 17.644531 7.953125 17.640625 7.972656 L 16.921875 10.871094 C 16.84375 11.183594 16.65625 11.464844 16.394531 11.664062 L 15.03125 12.691406 C 15.015625 12.703125 14.996094 12.707031 14.976562 12.707031 Z M 14.035156 12.398438 L 14.949219 12.527344 L 16.289062 11.523438 C 16.515625 11.351562 16.679688 11.101562 16.75 10.828125 L 17.464844 7.933594 C 17.476562 7.878906 17.746094 6.554688 15.777344 6.121094 C 14.949219 5.941406 14.28125 6.132812 13.789062 6.695312 C 13.425781 7.109375 13.296875 7.582031 13.289062 7.613281 L 12.785156 9.957031 C 12.714844 10.292969 12.789062 10.648438 12.988281 10.929688 Z M 14.035156 12.398438 "/><path style=" stroke:none;fill-rule:nonzero;fill:#272547;fill-opacity:1;" d="M 13.070312 8.191406 L 13.070312 6.203125 L 14.695312 5.171875 L 14.980469 5.617188 L 17.058594 5.449219 C 17.058594 5.449219 18.195312 6.609375 18.066406 7.574219 C 17.410156 8.523438 17.410156 8.523438 17.410156 8.523438 L 17.117188 7.140625 C 17.117188 7.140625 15.773438 7.347656 14.386719 6.566406 C 13.621094 7.742188 13.621094 7.742188 13.621094 7.742188 L 13.328125 7.796875 Z M 13.070312 8.191406 "/><path style=" stroke:none;fill-rule:nonzero;fill:#272547;fill-opacity:1;" d="M 12.289062 14.785156 C 12.011719 12.757812 12.652344 11.859375 12.679688 11.820312 L 12.824219 11.925781 L 12.753906 11.871094 L 12.824219 11.925781 C 12.820312 11.933594 12.199219 12.8125 12.46875 14.761719 Z M 12.289062 14.785156 "/><path style=" stroke:none;fill-rule:nonzero;fill:#272547;fill-opacity:1;" d="M 15.875 16.421875 L 15.695312 16.410156 C 15.890625 13.6875 15.566406 12.386719 15.5625 12.375 L 15.738281 12.332031 C 15.75 12.386719 16.070312 13.667969 15.875 16.421875 Z M 15.875 16.421875 "/><path style=" stroke:none;fill-rule:nonzero;fill:#ffffff;fill-opacity:1;" d="M 16.503906 16.945312 C 16.503906 17.132812 16.433594 17.296875 16.296875 17.433594 C 16.160156 17.566406 15.996094 17.636719 15.800781 17.636719 C 15.605469 17.636719 15.441406 17.566406 15.304688 17.433594 C 15.167969 17.296875 15.097656 17.132812 15.097656 16.945312 C 15.097656 16.753906 15.167969 16.589844 15.304688 16.453125 C 15.441406 16.320312 15.605469 16.25 15.800781 16.25 C 15.996094 16.25 16.160156 16.320312 16.296875 16.453125 C 16.433594 16.589844 16.503906 16.753906 16.503906 16.945312 Z M 16.503906 16.945312 "/><path style=" stroke:none;fill-rule:nonzero;fill:#272547;fill-opacity:1;" d="M 15.800781 17.722656 C 15.363281 17.722656 15.007812 17.375 15.007812 16.945312 C 15.007812 16.511719 15.363281 16.164062 15.800781 16.164062 C 16.238281 16.164062 16.589844 16.511719 16.589844 16.945312 C 16.589844 17.375 16.238281 17.722656 15.800781 17.722656 Z M 15.800781 16.339844 C 15.464844 16.339844 15.1875 16.609375 15.1875 16.945312 C 15.1875 17.277344 15.464844 17.546875 15.800781 17.546875 C 16.136719 17.546875 16.414062 17.277344 16.414062 16.945312 C 16.414062 16.609375 16.136719 16.339844 15.800781 16.339844 Z M 15.800781 16.339844 "/><path style=" stroke:none;fill-rule:nonzero;fill:#272547;fill-opacity:1;" d="M 16.082031 16.945312 C 16.082031 17.019531 16.054688 17.085938 16 17.140625 C 15.945312 17.195312 15.878906 17.222656 15.800781 17.222656 C 15.722656 17.222656 15.65625 17.195312 15.601562 17.140625 C 15.546875 17.085938 15.519531 17.019531 15.519531 16.945312 C 15.519531 16.867188 15.546875 16.800781 15.601562 16.746094 C 15.65625 16.691406 15.722656 16.664062 15.800781 16.664062 C 15.878906 16.664062 15.945312 16.691406 16 16.746094 C 16.054688 16.800781 16.082031 16.867188 16.082031 16.945312 Z M 16.082031 16.945312 "/><path style=" stroke:none;fill-rule:nonzero;fill:#272547;fill-opacity:1;" d="M 11.511719 17.40625 C 11.402344 16.816406 11.425781 15.980469 11.464844 15.386719 C 11.488281 15.046875 11.753906 14.765625 12.097656 14.714844 L 12.613281 14.644531 C 13.003906 14.589844 13.363281 14.847656 13.4375 15.226562 C 13.554688 15.832031 13.695312 16.667969 13.695312 17.222656 L 13.515625 17.222656 C 13.515625 16.683594 13.378906 15.855469 13.261719 15.257812 C 13.207031 14.972656 12.933594 14.78125 12.640625 14.820312 L 12.121094 14.890625 C 11.863281 14.925781 11.664062 15.140625 11.644531 15.398438 C 11.613281 15.878906 11.574219 16.773438 11.6875 17.375 Z M 11.511719 17.40625 "/><path style=" stroke:none;fill-rule:nonzero;fill:#272547;fill-opacity:1;" d="M 11.878906 17.597656 C 11.894531 17.703125 11.882812 17.800781 11.84375 17.886719 C 11.800781 17.96875 11.746094 18.015625 11.671875 18.027344 C 11.597656 18.039062 11.527344 18.007812 11.464844 17.941406 C 11.398438 17.871094 11.359375 17.78125 11.34375 17.675781 C 11.328125 17.566406 11.339844 17.46875 11.382812 17.386719 C 11.421875 17.300781 11.480469 17.253906 11.554688 17.242188 C 11.628906 17.230469 11.695312 17.261719 11.757812 17.332031 C 11.824219 17.398438 11.863281 17.488281 11.878906 17.597656 Z M 11.878906 17.597656 "/><path style=" stroke:none;fill-rule:nonzero;fill:#272547;fill-opacity:1;" d="M 13.914062 17.503906 C 13.914062 17.613281 13.886719 17.707031 13.835938 17.785156 C 13.78125 17.859375 13.71875 17.898438 13.644531 17.898438 C 13.570312 17.898438 13.503906 17.859375 13.453125 17.785156 C 13.398438 17.707031 13.371094 17.613281 13.371094 17.503906 C 13.371094 17.394531 13.398438 17.300781 13.453125 17.222656 C 13.503906 17.144531 13.570312 17.105469 13.644531 17.105469 C 13.71875 17.105469 13.78125 17.144531 13.835938 17.222656 C 13.886719 17.300781 13.914062 17.394531 13.914062 17.503906 Z M 13.914062 17.503906 "/><path style=" stroke:none;fill-rule:nonzero;fill:#272547;fill-opacity:1;" d="M 14.066406 8.886719 L 14.195312 8.53125 L 14.363281 8.589844 L 14.234375 8.945312 Z M 14.066406 8.886719 "/><path style=" stroke:none;fill-rule:nonzero;fill:#272547;fill-opacity:1;" d="M 15.878906 9.402344 L 16.003906 9.042969 L 16.175781 9.101562 L 16.046875 9.460938 Z M 15.878906 9.402344 "/><path style=" stroke:none;fill-rule:nonzero;fill:#272547;fill-opacity:1;" d="M 15.636719 10.550781 C 15.632812 10.550781 15.632812 10.550781 15.628906 10.550781 C 15.597656 10.550781 14.855469 10.5 14.421875 10.199219 L 14.527344 10.054688 C 14.8125 10.257812 15.28125 10.335938 15.507812 10.363281 L 15.035156 8.898438 L 15.207031 8.84375 L 15.722656 10.4375 C 15.730469 10.464844 15.726562 10.496094 15.707031 10.519531 C 15.691406 10.539062 15.664062 10.550781 15.636719 10.550781 Z M 15.636719 10.550781 "/><path style=" stroke:none;fill-rule:nonzero;fill:#272547;fill-opacity:1;" d="M 15.34375 11.179688 C 14.082031 11.179688 13.699219 10.410156 13.683594 10.375 L 13.847656 10.300781 C 13.863281 10.328125 14.203125 11.003906 15.34375 11.003906 Z M 15.34375 11.179688 "/><path style=" stroke:none;fill-rule:nonzero;fill:#272547;fill-opacity:1;" d="M 14.195312 9.757812 C 14.15625 9.757812 14.121094 9.753906 14.082031 9.746094 C 13.671875 9.667969 13.421875 9.179688 13.523438 8.664062 C 13.625 8.144531 14.042969 7.789062 14.453125 7.867188 C 14.863281 7.945312 15.113281 8.429688 15.011719 8.949219 C 14.917969 9.417969 14.566406 9.757812 14.195312 9.757812 Z M 14.335938 8.03125 C 14.050781 8.03125 13.773438 8.3125 13.699219 8.695312 C 13.617188 9.121094 13.804688 9.511719 14.117188 9.570312 C 14.429688 9.632812 14.75 9.335938 14.835938 8.914062 C 14.917969 8.492188 14.730469 8.101562 14.417969 8.039062 C 14.390625 8.035156 14.363281 8.03125 14.335938 8.03125 Z M 14.335938 8.03125 "/><path style=" stroke:none;fill-rule:nonzero;fill:#272547;fill-opacity:1;" d="M 16.117188 10.203125 C 16.078125 10.203125 16.039062 10.199219 16 10.191406 C 15.796875 10.152344 15.628906 10.015625 15.523438 9.804688 C 15.421875 9.601562 15.394531 9.355469 15.441406 9.109375 C 15.492188 8.863281 15.609375 8.644531 15.78125 8.496094 C 15.957031 8.339844 16.167969 8.273438 16.371094 8.3125 C 16.574219 8.351562 16.742188 8.488281 16.847656 8.699219 C 16.949219 8.902344 16.976562 9.148438 16.929688 9.394531 C 16.878906 9.640625 16.761719 9.859375 16.589844 10.007812 C 16.445312 10.136719 16.28125 10.203125 16.117188 10.203125 Z M 16.253906 8.480469 C 16.132812 8.480469 16.011719 8.53125 15.902344 8.625 C 15.757812 8.75 15.660156 8.933594 15.617188 9.144531 C 15.578125 9.351562 15.601562 9.558594 15.683594 9.726562 C 15.761719 9.886719 15.886719 9.988281 16.035156 10.015625 C 16.179688 10.046875 16.335938 9.996094 16.46875 9.878906 C 16.613281 9.753906 16.710938 9.570312 16.753906 9.359375 C 16.792969 9.152344 16.769531 8.945312 16.6875 8.777344 C 16.609375 8.617188 16.484375 8.515625 16.335938 8.488281 C 16.308594 8.480469 16.28125 8.480469 16.253906 8.480469 Z M 16.253906 8.480469 "/><path style=" stroke:none;fill-rule:nonzero;fill:#272547;fill-opacity:1;" d="M 15.613281 8.792969 C 15.394531 8.496094 14.953125 8.609375 14.949219 8.609375 L 14.902344 8.441406 C 14.925781 8.433594 15.464844 8.292969 15.757812 8.6875 Z M 15.613281 8.792969 "/><path style=" stroke:none;fill-rule:nonzero;fill:#272547;fill-opacity:1;" d="M 13.011719 8.054688 L 13.90625 8.042969 L 13.90625 8.21875 L 13.015625 8.230469 Z M 13.011719 8.054688 "/><path style=" stroke:none;fill-rule:nonzero;fill:#272547;fill-opacity:1;" d="M 16.742188 8.824219 L 16.796875 8.65625 L 17.34375 8.832031 L 17.289062 9 Z M 16.742188 8.824219 "/><path style=" stroke:none;fill-rule:nonzero;fill:#272547;fill-opacity:1;" d="M 14.390625 8.496094 C 14.195312 8.417969 14.074219 8.488281 14.074219 8.488281 L 13.976562 8.339844 C 13.984375 8.335938 14.175781 8.21875 14.457031 8.332031 Z M 14.390625 8.496094 "/><path style=" stroke:none;fill-rule:nonzero;fill:#272547;fill-opacity:1;" d="M 16.253906 9.070312 C 16.191406 8.929688 16.027344 8.917969 16.019531 8.914062 L 16.03125 8.738281 C 16.042969 8.738281 16.3125 8.757812 16.417969 9 Z M 16.253906 9.070312 "/><path style=" stroke:none;fill-rule:nonzero;fill:#ffffff;fill-opacity:1;" d="M 9.726562 8.117188 L 7.980469 13.246094 C 7.945312 13.351562 7.867188 13.433594 7.773438 13.480469 C 7.679688 13.523438 7.570312 13.535156 7.460938 13.5 L 6.734375 15.640625 C 6.699219 15.742188 6.625 15.820312 6.535156 15.867188 C 6.445312 15.910156 6.339844 15.921875 6.238281 15.886719 C 6.03125 15.816406 5.921875 15.597656 5.988281 15.394531 L 6.71875 13.253906 C 6.503906 13.183594 6.390625 12.957031 6.460938 12.742188 L 8.207031 7.613281 C 8.347656 7.199219 8.800781 6.976562 9.222656 7.113281 C 9.640625 7.253906 9.867188 7.703125 9.726562 8.117188 Z M 9.726562 8.117188 "/><path style=" stroke:none;fill-rule:nonzero;fill:#727dc2;fill-opacity:1;" d="M 8.976562 10.316406 L 7.980469 13.246094 C 7.945312 13.351562 7.867188 13.433594 7.773438 13.480469 C 7.679688 13.523438 7.570312 13.535156 7.460938 13.5 L 6.734375 15.640625 C 6.699219 15.742188 6.625 15.820312 6.535156 15.867188 C 6.445312 15.910156 6.339844 15.921875 6.238281 15.886719 C 6.03125 15.816406 5.921875 15.597656 5.988281 15.394531 L 6.71875 13.253906 C 6.503906 13.183594 6.390625 12.957031 6.460938 12.742188 L 7.457031 9.8125 Z M 8.976562 10.316406 "/><path style=" stroke:none;fill-rule:nonzero;fill:#272547;fill-opacity:1;" d="M 6.363281 15.996094 C 6.3125 15.996094 6.257812 15.988281 6.207031 15.96875 C 6.085938 15.929688 5.988281 15.84375 5.929688 15.730469 C 5.875 15.617188 5.863281 15.488281 5.90625 15.367188 L 6.609375 13.304688 C 6.519531 13.253906 6.449219 13.183594 6.402344 13.089844 C 6.34375 12.972656 6.332031 12.839844 6.375 12.714844 L 8.121094 7.585938 C 8.199219 7.363281 8.355469 7.179688 8.570312 7.078125 C 8.78125 6.972656 9.023438 6.957031 9.25 7.03125 C 9.476562 7.105469 9.65625 7.261719 9.765625 7.472656 C 9.871094 7.683594 9.886719 7.921875 9.8125 8.144531 L 8.066406 13.273438 C 8.023438 13.398438 7.933594 13.5 7.816406 13.558594 C 7.722656 13.605469 7.621094 13.621094 7.523438 13.605469 L 6.820312 15.671875 C 6.777344 15.789062 6.691406 15.886719 6.578125 15.945312 C 6.507812 15.976562 6.4375 15.996094 6.363281 15.996094 Z M 8.964844 7.160156 C 8.855469 7.160156 8.75 7.1875 8.648438 7.234375 C 8.480469 7.320312 8.351562 7.460938 8.292969 7.640625 L 6.546875 12.773438 C 6.519531 12.851562 6.523438 12.9375 6.5625 13.011719 C 6.601562 13.089844 6.667969 13.144531 6.746094 13.171875 C 6.769531 13.179688 6.789062 13.195312 6.800781 13.214844 C 6.808594 13.238281 6.8125 13.261719 6.804688 13.28125 L 6.074219 15.425781 C 6.050781 15.5 6.054688 15.582031 6.089844 15.652344 C 6.128906 15.722656 6.1875 15.777344 6.265625 15.800781 C 6.34375 15.828125 6.425781 15.820312 6.496094 15.785156 C 6.570312 15.75 6.625 15.691406 6.648438 15.613281 L 7.378906 13.472656 C 7.394531 13.425781 7.445312 13.402344 7.492188 13.417969 C 7.570312 13.445312 7.660156 13.4375 7.734375 13.398438 C 7.8125 13.363281 7.867188 13.296875 7.894531 13.21875 L 9.640625 8.085938 C 9.703125 7.910156 9.6875 7.71875 9.605469 7.550781 C 9.519531 7.382812 9.375 7.257812 9.191406 7.199219 C 9.117188 7.171875 9.042969 7.160156 8.964844 7.160156 Z M 8.964844 7.160156 "/><path style=" stroke:none;fill-rule:nonzero;fill:#272547;fill-opacity:1;" d="M 7.070312 13.160156 L 8.757812 8.203125 L 8.925781 8.257812 L 7.242188 13.214844 Z M 7.070312 13.160156 "/><path style=" stroke:none;fill-rule:nonzero;fill:#272547;fill-opacity:1;" d="M 8.429688 8.183594 L 8.488281 8.015625 L 9.269531 8.273438 L 9.214844 8.441406 Z M 8.429688 8.183594 "/><path style=" stroke:none;fill-rule:nonzero;fill:#272547;fill-opacity:1;" d="M 8.179688 8.925781 L 8.234375 8.757812 L 9.019531 9.015625 L 8.960938 9.183594 Z M 8.179688 8.925781 "/><path style=" stroke:none;fill-rule:nonzero;fill:#272547;fill-opacity:1;" d="M 7.925781 9.667969 L 7.984375 9.5 L 8.765625 9.757812 L 8.710938 9.925781 Z M 7.925781 9.667969 "/><path style=" stroke:none;fill-rule:nonzero;fill:#272547;fill-opacity:1;" d="M 7.671875 10.40625 L 7.730469 10.242188 L 8.515625 10.5 L 8.457031 10.667969 Z M 7.671875 10.40625 "/><path style=" stroke:none;fill-rule:nonzero;fill:#272547;fill-opacity:1;" d="M 7.421875 11.148438 L 7.480469 10.980469 L 8.261719 11.242188 L 8.207031 11.410156 Z M 7.421875 11.148438 "/><path style=" stroke:none;fill-rule:nonzero;fill:#272547;fill-opacity:1;" d="M 7.167969 11.890625 L 7.226562 11.722656 L 8.011719 11.984375 L 7.953125 12.148438 Z M 7.167969 11.890625 "/><path style=" stroke:none;fill-rule:nonzero;fill:#272547;fill-opacity:1;" d="M 6.917969 12.632812 L 6.972656 12.464844 L 7.757812 12.722656 L 7.699219 12.890625 Z M 6.917969 12.632812 "/><path style=" stroke:none;fill-rule:nonzero;fill:#727dc2;fill-opacity:1;" d="M 21.921875 15.585938 C 21.921875 15.585938 21.371094 17.234375 22.023438 17.667969 C 22.675781 18.101562 23.300781 17.632812 23.15625 16.6875 C 23.007812 15.746094 23.007812 15.746094 23.007812 15.746094 Z M 21.921875 15.585938 "/><path style=" stroke:none;fill-rule:nonzero;fill:#272547;fill-opacity:1;" d="M 22.507812 17.921875 C 22.335938 17.921875 22.152344 17.859375 21.972656 17.742188 C 21.273438 17.277344 21.8125 15.628906 21.835938 15.558594 C 21.851562 15.519531 21.890625 15.492188 21.933594 15.5 L 23.019531 15.65625 C 23.058594 15.664062 23.089844 15.691406 23.097656 15.730469 L 23.242188 16.675781 C 23.324219 17.191406 23.1875 17.621094 22.871094 17.816406 C 22.761719 17.886719 22.636719 17.921875 22.507812 17.921875 Z M 21.984375 15.6875 C 21.835938 16.175781 21.609375 17.285156 22.074219 17.59375 C 22.324219 17.761719 22.582031 17.789062 22.777344 17.667969 C 23.027344 17.507812 23.136719 17.148438 23.066406 16.703125 L 22.929688 15.824219 Z M 21.984375 15.6875 "/><path style=" stroke:none;fill-rule:nonzero;fill:#727dc2;fill-opacity:1;" d="M 24.90625 14.699219 C 24.90625 14.699219 26.253906 15.78125 25.9375 16.503906 C 25.621094 17.226562 24.84375 17.171875 24.460938 16.300781 C 24.078125 15.425781 24.078125 15.425781 24.078125 15.425781 Z M 24.90625 14.699219 "/><path style=" stroke:none;fill-rule:nonzero;fill:#272547;fill-opacity:1;" d="M 25.292969 17.09375 C 24.925781 17.09375 24.585938 16.808594 24.378906 16.335938 L 23.996094 15.460938 C 23.980469 15.425781 23.988281 15.386719 24.019531 15.359375 L 24.847656 14.632812 C 24.878906 14.605469 24.929688 14.605469 24.964844 14.632812 C 25.019531 14.675781 26.355469 15.765625 26.019531 16.539062 C 25.867188 16.890625 25.601562 17.09375 25.292969 17.09375 Z M 24.1875 15.449219 L 24.542969 16.265625 C 24.722656 16.671875 25 16.914062 25.292969 16.914062 C 25.527344 16.914062 25.730469 16.753906 25.855469 16.46875 C 26.078125 15.957031 25.296875 15.144531 24.910156 14.816406 Z M 24.1875 15.449219 "/><path style=" stroke:none;fill-rule:nonzero;fill:#727dc2;fill-opacity:1;" d="M 21.503906 13.765625 C 21.503906 13.765625 20.328125 13.710938 19.984375 13.976562 C 19.625 14.257812 19.53125 14.804688 20.214844 15.121094 C 20.898438 15.4375 21.734375 14.558594 21.734375 14.558594 Z M 21.503906 13.765625 "/><path style=" stroke:none;fill-rule:nonzero;fill:#272547;fill-opacity:1;" d="M 20.535156 15.28125 C 20.417969 15.28125 20.296875 15.257812 20.179688 15.203125 C 19.757812 15.007812 19.644531 14.746094 19.621094 14.5625 C 19.59375 14.324219 19.710938 14.078125 19.929688 13.910156 C 20.289062 13.628906 21.382812 13.671875 21.507812 13.675781 C 21.546875 13.679688 21.578125 13.703125 21.589844 13.742188 L 21.820312 14.535156 C 21.828125 14.5625 21.820312 14.597656 21.800781 14.617188 C 21.769531 14.648438 21.164062 15.28125 20.535156 15.28125 Z M 21.257812 13.847656 C 20.863281 13.847656 20.25 13.882812 20.039062 14.046875 C 19.867188 14.179688 19.777344 14.363281 19.800781 14.542969 C 19.824219 14.742188 19.980469 14.914062 20.253906 15.042969 C 20.796875 15.292969 21.472656 14.6875 21.632812 14.53125 L 21.433594 13.851562 C 21.382812 13.847656 21.324219 13.847656 21.257812 13.847656 Z M 21.257812 13.847656 "/><path style=" stroke:none;fill-rule:nonzero;fill:#727dc2;fill-opacity:1;" d="M 24.28125 12.9375 C 24.28125 12.9375 25.238281 12.25 25.671875 12.285156 C 26.125 12.324219 26.496094 12.734375 26.089844 13.375 C 25.6875 14.015625 24.511719 13.730469 24.511719 13.730469 Z M 24.28125 12.9375 "/><path style=" stroke:none;fill-rule:nonzero;fill:#272547;fill-opacity:1;" d="M 25.089844 13.882812 C 24.773438 13.882812 24.515625 13.824219 24.492188 13.816406 C 24.460938 13.808594 24.433594 13.785156 24.425781 13.757812 L 24.195312 12.960938 C 24.183594 12.925781 24.199219 12.890625 24.226562 12.867188 C 24.328125 12.792969 25.222656 12.160156 25.679688 12.199219 C 25.949219 12.21875 26.179688 12.359375 26.285156 12.570312 C 26.40625 12.808594 26.363281 13.109375 26.167969 13.421875 C 25.929688 13.796875 25.46875 13.882812 25.089844 13.882812 Z M 24.582031 13.65625 C 24.804688 13.699219 25.695312 13.835938 26.015625 13.328125 C 26.179688 13.066406 26.21875 12.832031 26.125 12.648438 C 26.046875 12.496094 25.875 12.390625 25.664062 12.375 C 25.355469 12.347656 24.679688 12.769531 24.382812 12.972656 Z M 24.582031 13.65625 "/><path style=" stroke:none;fill-rule:nonzero;fill:#727dc2;fill-opacity:1;" d="M 25.148438 14.144531 C 25.160156 14.414062 25.117188 14.675781 25.027344 14.925781 C 24.933594 15.175781 24.796875 15.402344 24.617188 15.597656 C 24.4375 15.792969 24.226562 15.945312 23.988281 16.058594 C 23.746094 16.171875 23.496094 16.230469 23.230469 16.242188 C 22.964844 16.25 22.710938 16.207031 22.460938 16.113281 C 22.214844 16.019531 21.992188 15.882812 21.796875 15.699219 C 21.605469 15.515625 21.453125 15.304688 21.339844 15.058594 C 21.230469 14.816406 21.171875 14.558594 21.160156 14.292969 C 21.148438 14.023438 21.191406 13.765625 21.28125 13.511719 C 21.375 13.261719 21.511719 13.039062 21.691406 12.839844 C 21.871094 12.644531 22.082031 12.492188 22.320312 12.378906 C 22.5625 12.269531 22.8125 12.207031 23.078125 12.199219 C 23.34375 12.1875 23.597656 12.230469 23.847656 12.324219 C 24.09375 12.417969 24.316406 12.554688 24.511719 12.738281 C 24.703125 12.921875 24.855469 13.132812 24.96875 13.378906 C 25.078125 13.621094 25.136719 13.878906 25.148438 14.144531 Z M 25.148438 14.144531 "/><path style=" stroke:none;fill-rule:nonzero;fill:#272547;fill-opacity:1;" d="M 23.15625 16.332031 C 22.820312 16.332031 22.484375 16.246094 22.179688 16.082031 C 21.679688 15.816406 21.316406 15.363281 21.15625 14.8125 C 20.828125 13.695312 21.460938 12.523438 22.5625 12.195312 C 23.089844 12.039062 23.644531 12.09375 24.128906 12.355469 C 24.628906 12.625 24.992188 13.074219 25.152344 13.625 C 25.480469 14.742188 24.847656 15.917969 23.746094 16.246094 C 23.550781 16.300781 23.351562 16.332031 23.15625 16.332031 Z M 23.152344 12.285156 C 22.972656 12.285156 22.792969 12.308594 22.613281 12.363281 C 21.605469 12.664062 21.027344 13.742188 21.328125 14.765625 C 21.472656 15.269531 21.808594 15.683594 22.265625 15.929688 C 22.707031 16.164062 23.214844 16.21875 23.695312 16.074219 C 24.703125 15.777344 25.28125 14.699219 24.980469 13.675781 C 24.835938 13.167969 24.5 12.757812 24.042969 12.511719 C 23.765625 12.359375 23.460938 12.285156 23.152344 12.285156 Z M 23.152344 12.285156 "/><path style=" stroke:none;fill-rule:nonzero;fill:#727dc2;fill-opacity:1;" d="M 21.398438 11.074219 C 21.417969 11.207031 21.410156 11.339844 21.375 11.46875 C 21.34375 11.597656 21.285156 11.71875 21.207031 11.824219 C 21.128906 11.929688 21.03125 12.015625 20.917969 12.085938 C 20.804688 12.152344 20.683594 12.191406 20.554688 12.210938 C 20.421875 12.226562 20.292969 12.21875 20.167969 12.179688 C 20.039062 12.144531 19.925781 12.085938 19.820312 12.003906 C 19.714844 11.921875 19.632812 11.820312 19.566406 11.703125 C 19.5 11.585938 19.457031 11.460938 19.4375 11.328125 C 19.421875 11.195312 19.429688 11.0625 19.460938 10.933594 C 19.496094 10.800781 19.550781 10.683594 19.628906 10.578125 C 19.710938 10.46875 19.804688 10.382812 19.917969 10.316406 C 20.03125 10.25 20.15625 10.207031 20.285156 10.191406 C 20.414062 10.175781 20.542969 10.183594 20.667969 10.21875 C 20.796875 10.253906 20.914062 10.316406 21.015625 10.398438 C 21.121094 10.480469 21.207031 10.578125 21.273438 10.695312 C 21.339844 10.8125 21.382812 10.941406 21.398438 11.074219 Z M 21.398438 11.074219 "/><path style=" stroke:none;fill-rule:nonzero;fill:#272547;fill-opacity:1;" d="M 20.429688 12.304688 C 20.253906 12.304688 20.082031 12.261719 19.925781 12.179688 C 19.660156 12.035156 19.46875 11.796875 19.386719 11.507812 C 19.214844 10.921875 19.539062 10.308594 20.109375 10.136719 C 20.378906 10.058594 20.664062 10.089844 20.914062 10.222656 C 21.175781 10.363281 21.367188 10.601562 21.453125 10.894531 C 21.621094 11.480469 21.296875 12.09375 20.730469 12.261719 C 20.628906 12.292969 20.53125 12.304688 20.429688 12.304688 Z M 20.410156 10.273438 C 20.324219 10.273438 20.242188 10.285156 20.160156 10.308594 C 19.683594 10.449219 19.414062 10.964844 19.558594 11.457031 C 19.628906 11.703125 19.789062 11.902344 20.011719 12.023438 C 20.21875 12.132812 20.457031 12.160156 20.675781 12.09375 C 21.152344 11.953125 21.421875 11.433594 21.28125 10.941406 C 21.207031 10.695312 21.046875 10.496094 20.828125 10.378906 C 20.695312 10.308594 20.550781 10.273438 20.410156 10.273438 Z M 20.410156 10.273438 "/><path style=" stroke:none;fill-rule:nonzero;fill:#272547;fill-opacity:1;" d="M 21.066406 11.214844 C 21.085938 11.378906 21.050781 11.523438 20.953125 11.65625 C 20.855469 11.785156 20.730469 11.859375 20.570312 11.878906 C 20.414062 11.898438 20.269531 11.859375 20.144531 11.757812 C 20.015625 11.660156 19.941406 11.527344 19.921875 11.363281 C 19.898438 11.203125 19.9375 11.054688 20.03125 10.925781 C 20.128906 10.796875 20.257812 10.722656 20.414062 10.703125 C 20.570312 10.679688 20.714844 10.722656 20.839844 10.820312 C 20.96875 10.921875 21.042969 11.054688 21.066406 11.214844 Z M 21.066406 11.214844 "/><path style=" stroke:none;fill-rule:nonzero;fill:#727dc2;fill-opacity:1;" d="M 24.796875 10.0625 C 24.8125 10.195312 24.804688 10.328125 24.773438 10.457031 C 24.738281 10.589844 24.683594 10.707031 24.605469 10.8125 C 24.523438 10.917969 24.429688 11.007812 24.316406 11.074219 C 24.203125 11.140625 24.082031 11.183594 23.949219 11.199219 C 23.820312 11.214844 23.691406 11.207031 23.566406 11.171875 C 23.4375 11.132812 23.324219 11.074219 23.21875 10.992188 C 23.113281 10.910156 23.027344 10.808594 22.960938 10.691406 C 22.894531 10.574219 22.855469 10.449219 22.835938 10.316406 C 22.816406 10.183594 22.824219 10.050781 22.859375 9.921875 C 22.890625 9.789062 22.949219 9.671875 23.027344 9.566406 C 23.105469 9.460938 23.203125 9.371094 23.316406 9.304688 C 23.429688 9.238281 23.550781 9.199219 23.683594 9.179688 C 23.8125 9.164062 23.941406 9.171875 24.066406 9.207031 C 24.195312 9.246094 24.308594 9.304688 24.414062 9.386719 C 24.519531 9.46875 24.605469 9.570312 24.671875 9.6875 C 24.738281 9.804688 24.777344 9.929688 24.796875 10.0625 Z M 24.796875 10.0625 "/><path style=" stroke:none;fill-rule:nonzero;fill:#272547;fill-opacity:1;" d="M 23.824219 11.296875 C 23.652344 11.296875 23.480469 11.253906 23.324219 11.167969 C 23.058594 11.027344 22.867188 10.789062 22.78125 10.496094 C 22.613281 9.910156 22.9375 9.296875 23.503906 9.128906 C 23.773438 9.046875 24.058594 9.078125 24.308594 9.210938 C 24.574219 9.351562 24.765625 9.589844 24.851562 9.882812 C 25.019531 10.46875 24.695312 11.082031 24.125 11.25 C 24.027344 11.28125 23.925781 11.296875 23.824219 11.296875 Z M 23.804688 9.261719 C 23.722656 9.261719 23.640625 9.273438 23.558594 9.296875 C 23.082031 9.4375 22.8125 9.953125 22.953125 10.445312 C 23.027344 10.691406 23.1875 10.894531 23.410156 11.011719 C 23.617188 11.125 23.851562 11.148438 24.074219 11.082031 C 24.550781 10.941406 24.820312 10.425781 24.675781 9.933594 C 24.605469 9.6875 24.445312 9.484375 24.222656 9.367188 C 24.09375 9.296875 23.949219 9.261719 23.804688 9.261719 Z M 23.804688 9.261719 "/><path style=" stroke:none;fill-rule:nonzero;fill:#272547;fill-opacity:1;" d="M 24.375 10.230469 C 24.398438 10.394531 24.359375 10.539062 24.261719 10.667969 C 24.167969 10.800781 24.039062 10.875 23.882812 10.894531 C 23.722656 10.914062 23.582031 10.875 23.453125 10.773438 C 23.328125 10.675781 23.253906 10.542969 23.230469 10.378906 C 23.207031 10.21875 23.246094 10.070312 23.34375 9.941406 C 23.4375 9.8125 23.566406 9.738281 23.722656 9.714844 C 23.882812 9.695312 24.023438 9.734375 24.152344 9.835938 C 24.277344 9.9375 24.351562 10.070312 24.375 10.230469 Z M 24.375 10.230469 "/><path style=" stroke:none;fill-rule:nonzero;fill:#727dc2;fill-opacity:1;" d="M 24.425781 11.515625 C 24.695312 12.441406 23.976562 13.144531 22.933594 13.457031 C 21.886719 13.769531 20.90625 13.570312 20.636719 12.644531 C 20.363281 11.714844 20.90625 10.410156 21.953125 10.097656 C 23 9.785156 24.15625 10.589844 24.425781 11.515625 Z M 24.425781 11.515625 "/><path style=" stroke:none;fill-rule:nonzero;fill:#272547;fill-opacity:1;" d="M 22.058594 13.683594 C 21.730469 13.683594 21.4375 13.617188 21.195312 13.488281 C 20.875 13.316406 20.65625 13.039062 20.550781 12.667969 C 20.269531 11.710938 20.8125 10.34375 21.925781 10.011719 C 22.398438 9.871094 22.925781 9.9375 23.410156 10.199219 C 23.949219 10.488281 24.359375 10.972656 24.511719 11.492188 C 24.648438 11.957031 24.554688 12.398438 24.242188 12.773438 C 23.960938 13.109375 23.515625 13.375 22.957031 13.539062 C 22.640625 13.636719 22.339844 13.683594 22.058594 13.683594 Z M 22.425781 10.117188 C 22.273438 10.117188 22.125 10.140625 21.980469 10.183594 C 20.976562 10.480469 20.472656 11.757812 20.722656 12.617188 C 20.816406 12.941406 21.003906 13.183594 21.28125 13.332031 C 21.6875 13.550781 22.261719 13.5625 22.90625 13.371094 C 23.78125 13.109375 24.617188 12.492188 24.339844 11.539062 C 24.203125 11.070312 23.8125 10.617188 23.324219 10.355469 C 23.03125 10.199219 22.726562 10.117188 22.425781 10.117188 Z M 22.425781 10.117188 "/><path style=" stroke:none;fill-rule:nonzero;fill:#272547;fill-opacity:1;" d="M 22 11.8125 C 22.042969 11.902344 22.0625 11.984375 22.058594 12.0625 C 22.054688 12.144531 22.027344 12.195312 21.976562 12.222656 C 21.921875 12.246094 21.863281 12.238281 21.796875 12.191406 C 21.730469 12.148438 21.671875 12.085938 21.628906 11.996094 C 21.585938 11.910156 21.566406 11.828125 21.570312 11.746094 C 21.574219 11.667969 21.601562 11.613281 21.652344 11.589844 C 21.703125 11.566406 21.761719 11.574219 21.832031 11.617188 C 21.898438 11.660156 21.953125 11.726562 22 11.8125 Z M 22 11.8125 "/><path style=" stroke:none;fill-rule:nonzero;fill:#272547;fill-opacity:1;" d="M 23.226562 11.527344 C 23.234375 11.625 23.222656 11.710938 23.1875 11.785156 C 23.152344 11.855469 23.109375 11.894531 23.050781 11.898438 C 22.996094 11.902344 22.945312 11.875 22.898438 11.808594 C 22.851562 11.742188 22.824219 11.660156 22.816406 11.5625 C 22.808594 11.464844 22.820312 11.378906 22.855469 11.308594 C 22.890625 11.234375 22.933594 11.195312 22.992188 11.191406 C 23.050781 11.1875 23.101562 11.21875 23.144531 11.285156 C 23.191406 11.351562 23.21875 11.429688 23.226562 11.527344 Z M 23.226562 11.527344 "/><path style=" stroke:none;fill-rule:nonzero;fill:#ffffff;fill-opacity:1;" d="M 21.6875 12.972656 C 21.527344 12.414062 21.902344 12.007812 22.460938 11.839844 C 23.019531 11.675781 23.554688 11.808594 23.714844 12.371094 C 23.878906 12.929688 23.613281 13.699219 23.050781 13.867188 C 22.492188 14.035156 21.851562 13.53125 21.6875 12.972656 Z M 21.6875 12.972656 "/><path style=" stroke:none;fill-rule:nonzero;fill:#272547;fill-opacity:1;" d="M 22.828125 13.988281 C 22.65625 13.988281 22.476562 13.941406 22.308594 13.847656 C 21.972656 13.667969 21.703125 13.34375 21.601562 12.996094 C 21.441406 12.441406 21.769531 11.953125 22.433594 11.757812 C 22.792969 11.648438 23.128906 11.664062 23.378906 11.800781 C 23.585938 11.910156 23.730469 12.097656 23.804688 12.34375 C 23.976562 12.9375 23.695312 13.769531 23.078125 13.953125 C 22.996094 13.976562 22.914062 13.988281 22.828125 13.988281 Z M 22.886719 11.863281 C 22.761719 11.863281 22.628906 11.882812 22.488281 11.925781 C 22.039062 12.058594 21.613281 12.398438 21.777344 12.949219 C 21.863281 13.25 22.101562 13.535156 22.394531 13.695312 C 22.542969 13.773438 22.777344 13.855469 23.027344 13.78125 C 23.539062 13.628906 23.777344 12.898438 23.628906 12.394531 C 23.570312 12.191406 23.457031 12.042969 23.292969 11.957031 C 23.179688 11.894531 23.042969 11.863281 22.886719 11.863281 Z M 22.886719 11.863281 "/><path style=" stroke:none;fill-rule:nonzero;fill:#272547;fill-opacity:1;" d="M 22.226562 12.582031 C 22.160156 12.351562 22.3125 12.1875 22.542969 12.117188 C 22.769531 12.050781 22.988281 12.105469 23.054688 12.335938 C 23.121094 12.5625 23.011719 12.878906 22.785156 12.949219 C 22.554688 13.015625 22.292969 12.8125 22.226562 12.582031 Z M 22.226562 12.582031 "/><path style=" stroke:none;fill-rule:nonzero;fill:#272547;fill-opacity:1;" d="M 22.730469 13.359375 C 22.472656 13.359375 22.273438 13.226562 22.261719 13.222656 L 22.363281 13.074219 L 22.3125 13.148438 L 22.363281 13.074219 C 22.363281 13.074219 22.601562 13.230469 22.859375 13.167969 C 23.023438 13.125 23.167969 13 23.28125 12.792969 L 23.4375 12.878906 C 23.300781 13.132812 23.117188 13.285156 22.898438 13.339844 C 22.839844 13.351562 22.785156 13.359375 22.730469 13.359375 Z M 22.730469 13.359375 "/><g clip-rule="nonzero" clip-path="url(#99a1ede285)"><path style=" stroke:none;fill-rule:nonzero;fill:#c9edf7;fill-opacity:1;" d="M 9.371094 5.347656 C 9.527344 5.269531 9.671875 5.152344 9.832031 5.125 C 10.339844 5.035156 10.636719 5.292969 10.640625 5.804688 C 10.644531 6.351562 10.441406 6.816406 10.070312 7.222656 C 9.722656 7.609375 9.289062 7.871094 8.839844 8.105469 C 8.714844 8.171875 8.617188 8.140625 8.488281 8.066406 C 8.238281 7.917969 8.179688 7.664062 8.089844 7.4375 C 7.839844 6.808594 7.679688 6.160156 7.789062 5.476562 C 7.84375 5.132812 7.945312 4.804688 8.21875 4.558594 C 8.421875 4.371094 8.65625 4.292969 8.917969 4.402344 C 9.144531 4.5 9.277344 4.691406 9.3125 4.9375 C 9.332031 5.074219 9.351562 5.210938 9.371094 5.347656 Z M 8.570312 7.753906 C 8.617188 7.730469 8.660156 7.703125 8.703125 7.679688 C 9.074219 7.488281 9.429688 7.277344 9.71875 6.96875 C 9.957031 6.710938 10.132812 6.421875 10.183594 6.078125 C 10.207031 5.933594 10.179688 5.78125 10.160156 5.636719 C 10.148438 5.527344 10.058594 5.5 9.972656 5.535156 C 9.863281 5.578125 9.75 5.625 9.667969 5.699219 C 9.441406 5.894531 9.285156 6.128906 9.226562 6.429688 C 9.203125 6.5625 9.089844 6.640625 8.976562 6.621094 C 8.835938 6.601562 8.753906 6.503906 8.773438 6.355469 C 8.785156 6.246094 8.8125 6.136719 8.835938 6.027344 C 8.910156 5.683594 8.9375 5.335938 8.867188 4.992188 C 8.855469 4.917969 8.78125 4.828125 8.710938 4.800781 C 8.664062 4.777344 8.550781 4.828125 8.511719 4.878906 C 8.417969 4.996094 8.328125 5.128906 8.28125 5.269531 C 8.085938 5.863281 8.175781 6.453125 8.335938 7.039062 C 8.402344 7.273438 8.488281 7.503906 8.570312 7.753906 Z M 8.570312 7.753906 "/></g><g clip-rule="nonzero" clip-path="url(#39ace0e441)"><path style=" stroke:none;fill-rule:nonzero;fill:#fed7fe;fill-opacity:1;" d="M 4.828125 3.585938 C 4.863281 3.507812 4.894531 3.4375 4.929688 3.363281 C 5.113281 2.96875 5.554688 2.90625 5.898438 3.179688 C 6.238281 3.453125 6.34375 3.832031 6.382812 4.238281 C 6.417969 4.625 6.355469 4.996094 6.164062 5.332031 C 6 5.625 5.816406 5.90625 5.636719 6.191406 C 5.605469 6.242188 5.558594 6.28125 5.515625 6.324219 C 5.410156 6.417969 5.296875 6.4375 5.171875 6.355469 C 4.570312 5.953125 3.988281 5.527344 3.6875 4.847656 C 3.511719 4.453125 3.386719 4.03125 3.535156 3.589844 C 3.710938 3.074219 4.207031 3.027344 4.574219 3.320312 C 4.667969 3.398438 4.742188 3.496094 4.828125 3.585938 Z M 5.199219 5.996094 C 5.246094 5.945312 5.285156 5.910156 5.3125 5.867188 C 5.726562 5.339844 6.050781 4.785156 5.910156 4.074219 C 5.867188 3.859375 5.789062 3.664062 5.617188 3.519531 C 5.464844 3.394531 5.382812 3.417969 5.300781 3.589844 C 5.171875 3.875 5.167969 4.164062 5.246094 4.460938 C 5.292969 4.632812 5.242188 4.769531 5.109375 4.8125 C 4.96875 4.859375 4.851562 4.78125 4.785156 4.605469 C 4.726562 4.441406 4.671875 4.277344 4.59375 4.125 C 4.523438 3.980469 4.441406 3.832031 4.339844 3.710938 C 4.273438 3.640625 4.140625 3.5625 4.066406 3.585938 C 3.996094 3.605469 3.929688 3.746094 3.917969 3.839844 C 3.863281 4.191406 3.96875 4.523438 4.125 4.832031 C 4.371094 5.3125 4.785156 5.648438 5.199219 5.996094 Z M 5.199219 5.996094 "/></g><g clip-rule="nonzero" clip-path="url(#412492c86b)"><path style=" stroke:none;fill-rule:nonzero;fill:#c9edf7;fill-opacity:1;" d="M 5.617188 8.4375 C 5.726562 8.34375 5.820312 8.234375 5.941406 8.171875 C 6.304688 7.988281 6.660156 8.285156 6.789062 8.578125 C 7.015625 9.09375 6.886719 9.5625 6.578125 9.996094 C 6.375 10.285156 6.140625 10.546875 5.835938 10.734375 C 5.59375 10.886719 5.519531 10.878906 5.324219 10.679688 C 4.917969 10.261719 4.59375 9.792969 4.445312 9.226562 C 4.375 8.957031 4.367188 8.683594 4.460938 8.414062 C 4.59375 8.042969 5.019531 7.914062 5.335938 8.15625 C 5.445312 8.238281 5.53125 8.347656 5.617188 8.4375 Z M 4.828125 9.332031 C 4.839844 9.328125 4.851562 9.328125 4.863281 9.328125 C 5 9.703125 5.214844 10.035156 5.460938 10.347656 C 5.519531 10.417969 5.566406 10.386719 5.617188 10.351562 C 5.957031 10.125 6.222656 9.832031 6.382812 9.460938 C 6.5 9.191406 6.523438 8.914062 6.335938 8.664062 C 6.292969 8.609375 6.207031 8.550781 6.140625 8.554688 C 6.09375 8.558594 6.027344 8.644531 6.003906 8.707031 C 5.957031 8.824219 5.929688 8.949219 5.910156 9.070312 C 5.890625 9.171875 5.894531 9.273438 5.882812 9.375 C 5.867188 9.484375 5.8125 9.578125 5.695312 9.59375 C 5.570312 9.609375 5.492188 9.539062 5.460938 9.417969 C 5.445312 9.359375 5.4375 9.300781 5.417969 9.242188 C 5.347656 9.023438 5.28125 8.800781 5.199219 8.589844 C 5.160156 8.492188 5.0625 8.398438 4.957031 8.441406 C 4.882812 8.472656 4.8125 8.589844 4.808594 8.671875 C 4.796875 8.890625 4.816406 9.109375 4.828125 9.332031 Z M 4.828125 9.332031 "/></g></g></svg>